<?xml version="1.0" encoding="utf-8"?>
<!-- Generator: Adobe Illustrator 17.0.0, SVG Export Plug-In . SVG Version: 6.00 Build 0)  -->
<!DOCTYPE svg PUBLIC "-//W3C//DTD SVG 1.1//EN" "http://www.w3.org/Graphics/SVG/1.1/DTD/svg11.dtd">
<svg version="1.1" id="Layer_1" xmlns="http://www.w3.org/2000/svg" xmlns:xlink="http://www.w3.org/1999/xlink" x="0px" y="0px"
	 width="360px" height="360px" viewBox="0 0 360 360" enable-background="new 0 0 360 360" xml:space="preserve">
<g>
	<path fill="#DCDDDE" stroke="#000000" stroke-width="2.1108" stroke-linecap="round" stroke-linejoin="round" d="M301.12,189.669
		c0,0-3.029,30.198-3.597,36.992c-0.57,6.791-45.222,84.282-52.46,87.685c-7.238,3.398-12.341,0.543-22.045-2.556
		c-9.706-3.099-123.186-45.067-126.715-48.438c-3.532-3.37-22.323-38.631-22.417-39.991
		C73.787,222.001,301.12,189.669,301.12,189.669z"/>
	<path fill="#DCDDDE" stroke="#000000" stroke-width="2.1108" stroke-linecap="round" stroke-linejoin="round" d="M299.361,202.414
		c0,0,15.546-25.931,15.903-32.306c0.358-6.375-1.284-26.359-23.916-34.983c-22.632-8.623-135.581-36.161-135.581-36.161
		s-33.834-6.712-59.142,24.484c-25.308,31.197-46.737,61.478-48.856,65.648c-2.119,4.166-11.773,39.652,28.736,48.711
		c16.175,4.816,120.908,41.29,128.841,43.224c7.933,1.936,36.774,5.059,61.843-22.583L299.361,202.414z"/>
	<path fill="#656668" stroke="#000000" stroke-width="1.125" stroke-linecap="round" stroke-linejoin="round" d="M290.45,205.409
		c0,0,14.124-23.558,14.449-29.35c0.325-5.793-1.169-23.947-21.729-31.782c-20.56-7.836-123.179-32.852-123.179-32.852
		s-30.74-6.101-53.73,22.244c-22.995,28.343-42.465,55.854-44.392,59.641c-1.925,3.785-10.695,36.026,26.11,44.256
		c14.694,4.378,109.848,37.511,117.056,39.272c7.208,1.759,33.409,4.598,56.188-20.515L290.45,205.409z"/>
	
		<radialGradient id="SVGID_1_" cx="1802.7775" cy="-135.39" r="266.8234" gradientTransform="matrix(-0.9508 0.3098 0.3098 0.9508 1878.1189 -300.7047)" gradientUnits="userSpaceOnUse">
		<stop  offset="0" style="stop-color:#F79762"/>
		<stop  offset="1" style="stop-color:#7E4300"/>
	</radialGradient>
	<path fill="url(#SVGID_1_)" stroke="#000000" stroke-width="0.6213" stroke-linecap="round" stroke-linejoin="round" d="
		M141.957,115.288c0,0,14.837,1.774,33.827,7.759c18.991,5.985,38.206,9.46,43.515,12.947c5.309,3.487,8.108,6.747,11.245,6.77
		c3.138,0.021,5.653-0.799,9.098,0.167c3.443,0.964,5.213,2.126,8.974,2.988c3.758,0.862,5.849,0.876,10.23,2.58
		c4.378,1.703,7.713,3.398,9.797,4.458c2.084,1.059,5.206,3.171,7.29,4.232c2.084,1.059,4.799,1.915,6.048,2.55
		c1.249,0.636,1.871,1.477,5.309,3.486c3.436,2.011,5.718,4.745,6.757,5.798c1.041,1.054,2.619-0.504,4.051,3.896
		c1.434,4.402,1.759,3.254,1.312,7.224c-0.447,3.97-2.018,4.482-2.872,7.194c-0.856,2.713-0.529,0.522-3.604,7.088
		c-3.078,6.565-14.634,14.852-16.36,22.368c-1.726,7.518-4.048,11.058-5.108,13.14c-1.059,2.086-5.601,8.433-6.551,9.785
		c-0.949,1.354-3.581,3.95-4.224,6.244c-0.646,2.297-2.353,7.722-4.568,10.531c-2.217,2.806-6.843,6.749-8.422,8.307
		c-1.578,1.56-1.055,1.038-5.154,4.462c-4.1,3.422-7.245,4.446-9.446,5.164c-2.201,0.716-11.42,3.372-14.133,2.516
		c-2.713-0.856-8.569-0.685-13.892-2.079c-5.325-1.399-8.665-2.046-15.239-4.079c-6.574-2.032-11.071-1.957-17.536-4.72
		c-6.462-2.764-7.624-0.994-15.436-5.751c-7.809-4.759-8.218-6.018-11.56-6.665c-3.34-0.653-0.943,0.306-7.304-2.142
		c-6.361-2.449-7.606-4.13-11.254-5.723c-3.649-1.593-2.919-1.485-9.287-2.886c-6.368-1.403-10.646-2.792-16.387-4.399
		c-5.739-1.607-10.749-3.106-13.352-4.692c-2.603-1.586-9.797-4.459-11.881-5.518c-2.084-1.061-4.701-0.555-6.654-5.483
		c-1.955-4.928-3.821-7.449-2.432-11.726c1.389-4.279,1.623-7.831,4.479-12.936c2.86-5.103,1.808-4.067,5.608-9.477
		c3.8-5.412-1.148-0.323,6.551-9.785c7.694-9.464,8.653-11.861,9.919-13.317c1.263-1.456-2.641,3.643,3.597-6.04
		c6.233-9.682,7.711-11.555,9.399-13.843c1.689-2.289,4.226-6.245,5.279-7.283C112.634,137.36,119.578,115.972,141.957,115.288z"/>
	<path fill="#FFFFFF" d="M102.928,119.311c0,0-53.48,68.542-54.57,74.808c-1.088,6.268-5.594,23.385,15.232,36.074
		c-6.23-6.316-19.199-21.566-11.357-36.989C60.078,177.78,102.928,119.311,102.928,119.311z"/>
	<path fill="#FFFFFF" d="M285.798,136.239c0,0-124.495-36.294-129.327-32.982c-4.834,3.314,4.89,3.275,8.223,4.971"/>
	<path fill="#FFFFFF" d="M305.374,179.241l-43.295,77.397c0,0-1.796,3.022,1.567,0.533"/>
	<path opacity="0.46" d="M299.202,202.466l-31.645,56.038c0,0-23.149,29.276-63.048,22.627L82.658,240.15l5.938,10.758l116.2,41.779
		c0,0,46.931,2.619,65.157-25.226l28.205-50.052"/>
	<path opacity="0.49" d="M263.426,289.06c0,0-16.039,18.011-19.496,18.614c-3.454,0.601-4.292-14.774-8.052-15.115
		c-3.763-0.339,1.242,13.422-0.66,16.388c-1.904,2.966-13.497,1.006-25.003-2.287c16.025,7.559,24.33,9.028,26.994,9.201
		C239.875,316.035,244.854,321.713,263.426,289.06z"/>
	<path opacity="0.67" fill="#7E4300" d="M137.951,128.069c17.538-6.69,37.576,2.098,54.645,6.842
		c6.506,1.808,13.595,2.465,19.924,4.599c3.075,1.036,3.557,1.493,6.067,3.538c3.365,2.745,3.274,4.468,5.641,8.069
		c5.351,8.15,23.872,7.045,32.246,10.689c9.694,4.221,26.44,9.595,29.071,20.861c-4.444,2.283-15.494-3.963-17.774-6.777
		c0.704,1.086,0.765,2.81,1.008,3.848c-2.091,0.402-4.168-0.361-5.84-1.56c0.879,3.032,7.402,7.248,2.563,9.579
		c-3.777,1.816-9.886-2.987-11.89-5.296c-1.618-1.864-2.046-4.738-4.294-6.081c-3.475-2.078-11.841-0.023-16.018-0.127
		c-6.137-0.151-10.915-4.543-15.38-8.987c-4.785,0.094-20.59-0.898-21.325-8.101c-0.433-4.269,0.954-1.512,3.436-3.856
		c1.887-1.786,2.715-3.054,3.681-5.916c-2.678-0.006-14.538-5.563-14.973-8c-5.725-0.614-12.182-2.051-17.524-3.838
		c2.023,5.304-1.235,6.519-6.258,7.685c4.895,2.316,14.014,3.214,17.105,8.019c-3.77,1.429-7.517,3.099-11.535,1.78
		c2.173,6.067-3.866,7.361-9.065,6.355c-8.728-1.69-8.256-5.163-11.698-11.474c-2.159-3.961-2.451-4.24-7.767-4.517
		c-5.346-0.281-8.293,2.091-12.33-1.093c-2.432-1.92-2.264-3.797-3.588-6.248c-0.543-1.006-4.1-5.336-4.046-5.876
		c0.185-1.846,18.813-9.899,21.203-10.025c7.484-0.396,16.804,4.208,24.524,4.54"/>
	<path opacity="0.67" fill="#7E4300" d="M145.966,171.884c9.549,2.468,20.836,1.234,30.71,2.397
		c6.619,0.78,13.431,2.858,19.643,5.176c4.591,1.715,9.07,4.149,13.597,6.147c4.862,2.145,6.934,5.807,11.137,8.253
		c6.799,3.953,14.984-1.264,22.363,1.313c5.739,2.003,10.564,4.935,11.883,11.431c-7.22,3.502-13.417-3.057-19.414-5.447
		c-5.734-2.286-12.72-1.857-18.677-3.044c-6.081-1.211-12.391,1.387-18.771-0.537c-5.933-1.789-6.923-6.983-11.967-9.911
		c-10.681-6.197-23.135-5.152-34.543-8.595c-3.574-1.079-32.38-8.455-32.962-13.334c4.228-2.643,10.04-0.412,14.659,0.171
		c3.08,0.387,6.546,0.342,9.617,0.837c6.429,1.037,12.11,4.624,18.56,5.721"/>
	<path opacity="0.67" fill="#7E4300" d="M195.446,206.884c10.155,2.695,19.898,4.875,30.357,5.771
		c5.451,0.467,10.335-0.07,15.22,2.437c7.847,4.026,10.873,10.406,12.562,18.676c-4.147,2.156-6.544-0.837-9.86-0.306
		c-4.511,0.723-2.83,1.777-3.599,5.241c-1.511,6.794-0.526,9.53-8.293,12.14c-6.324,2.126-10.587,1.457-10.761-6.862
		c-0.103-4.767,3.211-9.205-3.143-12.484c-5.033-2.592-14.706-2.77-20.399-4.018c-6.824-1.498-11.682-6.667-18.371-8.652
		c-11.327-3.363-30.507-4.596-33.799-18.498c9.984-3.82,21.004-3.721,30.862,0.301c13.646,5.569,25.064,10.694,40.196,12.985"/>
	<path opacity="0.67" fill="#7E4300" d="M101.403,174.403c6.892,2.736,14.152,3.184,21.126,5.255
		c2.739,0.811,8.111,2.664,8.485,5.833c1.01,8.534-14.264,1.827-18.368,2.463c-6.28,0.975-13.324,3.886-19.393-0.422
		c-9.685-6.877-0.182-14.669,8.017-16.736"/>
	<path opacity="0.67" fill="#7E4300" d="M97.406,208.57c7.802-0.081,17.035,2.503,24.737,3.871
		c9.35,1.658,18.832,4.434,27.985,7.016c11.635,3.28,20.932,6.511,29.672,15.052c6.764,6.612,13.862,10.758,23.219,11.638
		c6.338,0.594,9.851,1.84,11.177,8.798c-9.865,3.756-14.947-0.907-24.344-3.23c-5.435-1.345-10.648,0.145-16.322-1.059
		c-7.222-1.532-13.097-4.013-18.125-9.458c-8.429-9.117-16.603-10.454-28.979-11.348c-6.029-0.436-27.468-1.609-28.067-10.558
		c5.744-2.463,15.66,2.258,21.463,3.998c5.606,1.682,14.177,3.169,19.86,2.211c-10.26-6.456-24.627-6.211-35.787-9.122
		c-6.86-1.79-22.637-4.259-24.561-12.304c5.693-3.266,21.194,0.991,26.552,3.296"/>
</g>
<g>
	<path opacity="0.2" fill="#B3B5B8" d="M180.541,134.773c-13.209,12.432-23.399,32.099-25.251,56.305
		c0.926-10.591,2.779-21.179,5.559-30.258c-3.707,15.129-9.266,48.412,3.705,45.385c6.483-3.024,0-34.796,12.968-36.306
		c1.852,0,1.852,4.537,0.926,6.05c-12.042,13.616-2.778,31.77-0.926,46.899c0,7.563-5.559,10.59-9.264,9.077
		c-13.895-6.052-20.377-27.232-19.451-46.899c1.85-21.18,8.335-39.333,18.069-52.776c1.902-3.237,2.706-5.611,3.22-7.756
		c0.805-4.214,1.611-8.389,2.301-12.491c-1.186-4.172-2.297-8.097-3.038-11.915c-1.864-1.721-3.88-2.428-5.964-2.428
		c-4.168,0-8.569,2.649-12.739,7.186c-1.85,1.513-5.557-1.512-9.261-3.024c7.874-10.59,16.21-12.483,23.853-8.511
		c2.474,1.71,4.874,4.071,6.747,9.326c1.073,4.907,2.009,9.563-0.25,17.888c-0.891,2.681-1.784,5.799-2.848,9.306
		c-8.048,9.811-14.533,23.426-18.24,40.069c-3.702,15.127-2.776,36.306,6.485,43.871c-1.852-15.128-4.631-31.769,0-46.897
		c-1.852,6.05-1.852,13.615-5.559,18.153c-1.85-25.718,11.118-42.359,21.381-58.362c0.931-3.034,1.96-5.975,2.947-8.762
		c3.132-7.8,2.105-11.453,1.384-15.405c-0.961-3.756-1.567-7.851-1.742-12.312c-1.141-5.236-3.111-8.109-5.234-10.548
		c-6.577-6.748-14.566-9.584-21.512-14.123c2.776-7.563,7.409-4.539,11.116-6.052c-4.633,1.512-10.19,0-13.897,6.052
		c6.022,4.539,12.971,7.186,19.376,11.584c2.135,1.466,4.212,3.128,6.172,5.118c1.983,6.031,3.819,12.068,5.557,18.11
		c0.87,3.023,1.562,6.177,1.817,9.713c-1.471,3.168-2.881,6.523-4.17,10.02c-1.289,3.495-2.465,7.137-6.228,12.62
		c-17.893,20.579-27.155,68.99-6.775,93.195c-18.527-21.181-13.894-68.077,2.383-88.238c3.712-6.181,5.585-10.302,6.645-13.59
		c1.062-3.287,2.278-6.408,3.611-9.296c0.442-3.075,0.491-5.573,0.182-7.7c-0.996-3.804-2.072-7.491-3.428-10.766
		c-1.632-2.252-3.372-3.958-5.243-5.049c-3.737-2.186-7.856-2.521-12.487,0c-7.411,4.537-14.821,4.537-22.232,6.05
		c0-4.538,1.852-9.077,2.781-13.616c0-1.511-1.855-1.511-2.781-1.511c8.337,1.511,17.601,7.563,25.937-1.514
		c-5.559,1.514-12.968,9.078-16.673,1.514c-5.557-10.591,3.705-21.182,10.188-24.206c8.34-3.026,15.749,1.512,23.638,5.108
		c1.794-0.78,3.185-2.534,4.097-5.709c-2.294-1.601-4.783-2.677-7.355-3.433c-1.852-0.883-3.747-1.67-6.312-3.106
		c-7.582-3.451-15.917-6.476-24.255-3.451c6.486-3.025,12.968-6.052,19.325-3.529c2.084-1.616,4.275-2.411,6.569-2.68
		c4.589-0.538,9.603,1.035,13.605,1.912c3.681,2.06,6.095,2.806,7.136,3.922c2.46,0.375,4.313,3.402,4.313,4.914
		c0.926,3.783,0.924,8.534-2.449,17.107c-1.761,5.146-3.833,5.141-6.029,1.96c-0.882-0.229-2.537,0.167-4.284,0.725
		c-2.196-0.492-4.795-1.625-7.545-3.202c-2.851,3.078-4.703-6-7.482-1.461c1.852,2.269,3.59,4.633,5.25,7.048
		c1.658,2.414,3.242,4.88,4.785,7.352c0.643,5.165,1.616,9.972,2.872,14.434c1.059,4.611,2.402,8.874,3.361,13.292
		c-1.289,3.084-2.776,6.72-4.151,10.607c-1.378,3.886-3.068,8.23-7.767,14.83c-7.129,11.104-17.321,27.745-13.614,45.899
		c0.926-9.078,3.705-15.128,5.559-22.692c-5.559,18.153-11.116,40.846-2.781,58.999c3.707,7.566,8.337,12.102,13.894,12.102
		c4.633-1.512,3.707-9.075,1.855-13.615c0.926,3.026,3.705,6.053,2.779,9.079c0,6.05-3.707,7.563-7.411,6.05
		c-11.116-4.538-17.601-19.666-19.451-36.309c-1.852-24.203,6.483-43.871,16.663-58.494c3.861-5.956,5.178-9.71,6.198-13.271
		c1.022-3.563,2.035-7.114,2.921-10.714c-0.699-3.611-1.504-7.096-2.39-10.488c-1.167-4.735-2.757-7.31-4.558-8.846
		c-3.602-3.076-7.718-3.578-12.351,0.455c4.013-3.531,7.926-3.025,11.462-0.129c1.766,1.45,3.379,3.786,4.642,7.844
		c0.865,3.504,1.726,6.99,2.493,10.586c-1.247,4.515-2.491,9.285-3.611,14.19c-0.711,2.514-1.868,5.387-4.792,9.926
		c-14.828,19.608-23.163,54.404-11.121,81.634c5.559,10.59,21.306,24.206,23.158,6.053c0.926-13.616-11.116-25.719-7.411-42.36
		c-3.705,12.103,3.707,33.282-3.705,34.795c-12.968,3.026-12.968-31.77-8.337-46.897c3.707-12.103,10.19-19.666,16.738-27.173
		C178.49,136.827,180.541,134.773,180.541,134.773z"/>
	<path opacity="0.2" fill="#B3B5B8" d="M171.855,144.361c-8.228,10.409-15.639,24.025-14.713,42.178
		c0,9.077,1.855,27.231,6.485,22.693c6.483-4.539,2.778-22.693,8.335-34.796c1.855-3.026,3.707-7.563,8.338-1.513
		c-12.042,10.59-4.631,33.282-3.705,49.925c0.926,12.101-9.264,10.59-13.895,6.049c-10.19-9.075-13.894-27.229-13.894-45.384
		c0.926-22.693,11.116-42.358,20.843-57.402c1.864-6.358,2.411-10.383,2.839-14.149c-0.597-2.354-1.064-4.73-1.368-7.126
		c-1.422-4.254-3.326-6.418-5.641-7.553c-9.264-3.025-15.747,12.103-24.084,4.539c7.411-9.078,15.515-11.725,22.819-8.816
		c2.435,0.971,4.78,2.557,6.981,4.73c1.581,3.668,2.741,8.022,3.686,12.719c-1.104,3.856-2.28,8.079-3.396,12.512
		c-0.673,2.258-1.464,4.66-2.968,7.578c-6.743,10.609-13.228,21.198-16.935,36.327c-5.557,24.206,0,62.024,19.454,62.024
		c-13.894-3.024-21.304-27.229-17.599-48.409c0,3.025,0,4.538-0.926,7.564c-3.705-24.206,7.411-40.847,16.544-55.221
		c4.352-5.974,5.896-9.965,7.271-13.911c1.377-3.943,2.676-7.878,3.475-11.865c-1.41-3.314-2.648-6.846-3.698-10.579
		c-1.048-3.733-1.913-7.665-2.58-11.78c-1.932-1.812-3.924-3.445-5.938-5.015c-6.043-4.713-12.297-8.873-17.854-15.681
		c5.557-4.538,10.19-4.538,15.836-1.634c3.84,1.746,8.709,6.929,11.027,6.173c-1.623,0.378-4.783-2.682-7.811-4.619
		c-7.009-4.459-19.051-8.997-23.685,4.619c6.483,5.294,13.897,7.563,20.663,11.52c2.255,1.32,4.441,2.826,6.495,4.696
		c1.778,3.888,3.054,8.128,4.172,12.418c0.921,4.467,1.686,8.983,1.583,14.22c-1.471,2.44-2.671,5.018-3.66,7.713
		c-0.987,2.695-1.761,5.507-2.884,8.709c-13.401,19.391-25.443,46.622-19.886,76.878c-7.409-31.769,7.414-58.999,19.76-80.445
		c1.261-4.345,2.631-8.531,3.918-12.47c-0.882-4.214-1.902-8.17-3.291-11.105c-1.745-4.467-4.013-6.449-6.373-7.927
		c-7.295-3.405-15.4-2.27-23.275,4.538c-1.852,1.513-4.633,0-6.483-1.513c-5.559-4.537-4.633-15.128-2.781-22.693
		c0,4.539,0,10.59,2.781,12.103c11.116,6.053,21.304-7.563,32.42,0c-10.19-10.59-27.789,12.103-29.641-7.563
		c-1.852-27.231,22.232-19.666,34.368-14.914c2.442-0.961,4.67-2.541,6.57-5.333c-2.355-1.761-4.965-2.949-7.694-3.734
		c-1.595-0.434-3.382-1.024-5.585-2.045c-7.278-2.716-14.692-7.256-22.101-5.743c5.559-3.026,12.042,0,17.258-2.311
		c2.837-2.266,5.98-2.948,9.217-2.716c3.239,0.232,6.572,1.375,9.797,2.757c2.776,1.345,5.47,2.877,6.811,5.655
		c2.308-1.873,4.161,2.665,4.161,2.665c0.772,4.033,0.582,8.99-2.872,17.753c-1.583,1.691-2.931,1.79-4.114,0.955
		c-1.184-0.835-3.223-0.961-5.302-0.824C172.891,68.539,167.332,64,160.849,64c2.082,2.648,4.168,5.39,6.24,8.201
		c2.077,2.811,4.142,5.691,6.188,8.616c0.863,5.013,1.941,9.822,3.227,14.374c1.291,4.555,2.79,8.852,4.493,12.845
		c-1.562,3.363-3.314,7.209-4.932,11.299c-0.809,2.045-1.586,4.151-2.285,6.288c-1.817,2.822-3.705,5.79-6.174,9.308
		c-9.537,13.789-16.949,30.429-15.094,51.609c2.778-9.077,3.704-19.666,7.411-28.743c-9.266,22.692-7.411,54.462,5.557,72.615
		c-12.968-10.59-17.599-31.769-15.747-54.462c2.779-21.179,11.116-34.795,20.712-48.791c0.905-3.656,1.895-7.186,2.895-10.515
		c1.05-7.013,0.091-11.577-1.272-15.032c-1.41-4.677-3.33-7.023-5.314-8.864c-6.139-4.542-12.854-4.542-17.947,4.535
		c4.862-5.674,11.289-7.944,16.935-4.893c1.88,1.016,3.674,2.623,5.295,4.893c0.617,4.287,1.443,8.363,2.421,12.283
		c0.288,2.216,0.161,4.917-0.966,8.956c-1.324,3.269-2.477,6.663-3.443,10.153c-11.906,15.506-22.094,38.199-20.242,63.917
		c0.926,21.179,18.525,54.461,26.863,33.282c4.631-13.615-11.116-33.282-2.779-51.437c-8.337,10.59-2.781,27.232-2.781,40.846
		c0,1.513-1.852,3.026-2.779,3.026c-5.557-1.513-9.264-9.077-11.116-16.64c-4.633-18.156,1.852-36.309,9.573-49.515
		C169.769,146.673,171.855,144.361,171.855,144.361z"/>
	<path opacity="0.2" fill="#B3B5B8" d="M163.96,155.186c-5.891,13.2-9.596,31.353-6.817,47.996c-0.926-15.129,0-28.745,3.707-42.361
		c-5.559,13.616-7.411,49.925,3.705,45.385c5.557-3.024,0.926-30.256,10.19-37.82c3.704-1.513,2.778,4.537,3.704,7.563
		c-8.337,9.077-6.485,25.719-0.926,37.821c2.778,7.565-0.926,16.641-5.559,16.641c-6.483,0-13.894-3.026-17.599-12.103
		c-12.968-33.282-0.926-68.077,15.249-91.045c1.733-5.302,2.568-9.079,2.949-11.991c0.379-2.913,0.307-4.96,0.22-6.801
		c-1.363-4.763-3.038-7.463-5.042-8.696c-6.196-2.494-13.839-0.226-21.713,3.557c-1.852,0-2.779-3.025-3.705-4.538
		c6.485-5.295,13.894-8.321,20.649-6.782c2.25,0.514,4.427,1.534,6.474,3.147c1.345,2.37,2.442,5.062,3.396,7.925
		c0.952,2.867,1.759,5.907,2.528,8.976c-1.338,3.337-2.661,7.083-3.864,11.094c-0.706,2.041-1.66,4.343-2.933,6.936
		c-14.208,18.629-23.472,47.372-16.988,76.115c2.781,12.103,10.192,19.668,17.601,24.206c-15.747-9.077-20.377-40.846-12.042-63.539
		c0,7.563-4.631,10.59-3.705,18.153c-3.705-24.206,9.264-43.871,19.526-58.826c1.188-2.53,2.112-4.807,2.942-6.965
		c1.663-4.311,3.454-8.391,4.993-11.937c-1.548-3.8-2.907-7.857-4.06-12.107c-1.156-4.251-2.11-8.696-2.856-13.274
		c-1.974-2.801-4.184-4.89-6.471-6.837c-4.581-3.894-9.444-7.297-14.074-12.593c9.264-6.05,16.673,4.539,25.01,6.053
		c-8.337-1.513-14.82-10.59-23.158-9.078c-3.707,1.512-12.968,6.052-8.335,10.591c6.946,5.672,15.976,5.388,23.348,11.46
		c2.346,2.359,4.509,5.42,5.41,12.691c0.451,3.418,1.08,6.642,1.871,9.699c0.587,3.234,1.289,6.341-1.558,13.012
		c-1.71,3.791-3.052,7.957-5.456,13.132c-17.131,20.186-26.395,58.006-14.353,88.263c-12.968-27.23-5.559-66.565,11.079-85.089
		c3.059-4.855,3.943-8.062,4.844-11.169c0.898-3.106,1.852-6.136,2.816-9.065c-0.426-3.217-0.922-6.279-1.469-9.19
		c-1.438-5.498-3.337-8.405-5.487-10.272c-2.229-1.443-4.603-2.292-7.15-2.292c-9.266,0-27.791,16.64-30.57-7.566
		c0,3.026,0.926,4.54,2.778,4.54c-3.705-1.513-0.926-6.05-0.926-9.077c0.926,1.512,0.926,4.537,1.855,6.05
		c11.577,5.042,23.156-2.521,34.199,1.821c2.163,1.013,4.308,2.503,6.036,5.97c-1.883-4.097-4.271-6.134-6.745-7.625
		c-7.554-4.041-15.894-3.189-24.229-3.189c-5.559,0-5.559-12.103-2.779-16.642c9.264-12.103,21.306-7.563,31.29-3.161
		c3.892,1.222,6.572,0.014,8.695-2.546c-0.919-3.506-2.855-4.816-4.981-5.613c-2.126-0.799-4.292-1.373-6.953-2.143
		c-3.966-3.177-7.671-4.692-12.304-4.692c1.852,1.514,0.926-3.025,2.531-2.645c3.029-1.137,4.995-2.554,7.033-3.344
		c6.104-2.369,12.809,0.924,18.787,3.878c2.542,1.201,3.015,2.888,3.541,3.145c1.941,3.106,3.758,6.429,4.919,10.362
		c-4.388,5.246-4.388,18.862-10.054,13.636c-0.942-1.041-4.123-0.556-7.772-2.124c-2.308-1.727-4.163-1.727-6.015-1.727
		c0.926,6.05,3.012,10.21,5.3,13.996c0.196,4.979,0.774,9.632,1.674,13.966c0.9,4.333,2.124,8.346,3.62,12.043
		c-1.492,3.613-3.188,7.553-4.75,11.692c-0.781,2.067-1.703,4.279-2.879,6.761c-11.301,15.67-23.343,38.362-19.638,64.081
		c2.778-4.539,0.926-10.591,1.852-15.129c-1.852,13.616-3.707,28.743,1.852,40.846c3.707,6.053,13.895,19.669,17.601,6.053
		c1.852,1.513,2.779,6.049,0.926,7.563c-9.264,6.053-19.454-6.05-23.16-19.666c-7.409-30.257,1.855-62.026,16.296-80.05
		c1.387-2.615,2.381-4.841,3.197-6.811c3.347-9.134,2.813-12.91,2.149-16.46c-0.863-3.302-1.773-6.471-2.8-9.369
		c-1.705-2.844-3.536-5.022-5.482-6.352c-3.889-2.657-8.109-2.491-12.433,2.554c4.324-5.045,8.644-5.716,12.594-3.651
		c1.974,1.031,3.828,2.85,5.519,5.363c0.84,4.253,1.773,8.342,2.785,12.312c0.316,2.225,0.264,4.842-0.164,8.052
		c-1.45,4.138-2.76,8.55-4.081,13.262c-16.654,20.636-29.623,62.995-12.023,90.226c3.707,7.563,14.82,21.179,19.453,4.539
		c2.779-13.616-10.19-27.232-5.559-43.873c-5.557,10.591,0.926,31.771-4.631,34.795c-13.894,4.539-12.042-33.281-6.782-50.413
		C162.388,158.136,163.96,155.186,163.96,155.186z"/>
	<path opacity="0.2" fill="#B3B5B8" d="M158.436,167.979c-2.22,12.509-3.146,24.612-1.293,36.714
		c-1.852-9.077-0.926-18.153-0.926-27.23c-0.926,12.103,2.781,43.872,9.264,31.769c4.631-7.563,0.926-36.309,12.968-37.822
		c-9.264,10.591-7.411,31.772-0.926,46.899c0.926,3.026,0.926,9.077-0.926,10.589c-11.116,9.078-22.232-6.049-25.939-22.692
		c-5.557-25.718,1.855-55.974,14.762-71.858c2.615-4.082,3.531-6.61,4.308-8.957c1.277-4.573,2.751-8.943,4.336-12.976
		c-1.703-6.032-3.445-11.059-5.786-13.122c-7.196-4.658-16.229-3.523-25.029,2.529c7.409-12.103,15.749-12.483,23.39-6.998
		c2.474,2.31,4.806,5.583,6.654,12.154c1.059,2.871,1.831,6.06-0.695,13.314c-1.184,3.224-2.227,6.669-4.271,11.038
		c-12.11,15.874-21.371,38.568-18.593,64.285c1.85,18.154,9.264,33.281,20.377,34.796c-15.747-6.05-21.304-36.309-14.821-57.488
		c-0.926,6.053,0,13.616-1.852,19.668c-9.264-30.257,11.116-49.924,20.897-69.399c1.253-3.686,2.54-7.248,3.559-10.606
		c0.66-2.998,0.907-5.531,0.582-7.593c-1.09-3.778-1.859-7.933-2.224-12.516c-0.739-5.483-2.161-8.902-3.88-11.561
		c-5.503-6.988-11.757-12.377-18.008-16.916c7.411-4.538,15.747,0,23.242,5.473c4.004-0.465,6.794-1.338,8.125-2.148
		c1.331-0.812,2.753-3.45,1.981-4.838c0.152,1.766-1.359,4.074-3.461,4.007c-1.74-0.164-3.859-0.089-6.134,0.23
		c-2.46-0.04-5.936-1.754-10.085-3.886c-7.182-3.377-18.298-7.916-22.931,5.7c6.948,4.537,13.897,8.32,20.473,13.233
		c2.191,1.638,4.341,3.402,6.436,5.36c1.378,3.673,2.586,7.561,3.779,11.447c1.01,4.049,2.004,8.096,2.152,12.827
		c-1.031,3.276-2.268,6.68-3.485,10.201c-1.216,3.522-3.279,7.635-7.599,13.836c-8.789,13.276-17.124,29.916-16.2,51.095
		c-0.924-6.051,1.855-10.59,0.926-16.64c-3.702,19.666,0,42.359,10.192,55.974c-23.158-27.231-9.264-77.154,9.084-99.648
		c0.893-3.272,1.904-6.458,2.989-9.524c0.896-3.381,1.179-5.917,0.87-7.825c-0.991-3.384-1.948-6.827-2.914-10.281
		c-1.296-3.555-2.926-5.513-4.712-6.805c-3.567-2.577-7.479-3.584-11.801-2.071c-7.409,3.025-14.821,9.077-23.158,4.538
		c8.337-13.616,28.717-13.616,40.759-4.538c-1.855-1.513-3.707-4.539-5.559-6.053c-9.264-6.05-25.936,7.566-26.863-6.05
		c-2.781-28.743,24.084-15.129,37.354-14.48c1.922-1.366,2.182-3.972,1.382-7.361c-2.112-1.605-4.406-2.807-6.74-3.797
		c-2.334-0.991-4.67-1.83-6.941-2.578c-3.513-1.928-7.414-3.853-10.807-5.124c4.743,0.596,7.484,0.464,9.441-0.157
		c1.803-0.688,3.674-1.023,5.566-1.13c3.782-0.212,7.641,0.503,11.186,1.173c3.094,6.224,9.579,3.197,11.432,9.249
		c0.772,3.53-0.138,8.711-3.697,17.28c-1.487,4.162-3.244,4.06-5.141,1.063c-1.63-0.767-4.965-1.235-9.341-3.737
		C170.111,64,165.48,65.513,161.775,64c0.926,1.513,1.852,3.026,2.779,4.539c-3.705,3.025-7.411,1.513-11.116,1.513
		c6.251,1.133,12.505,4.82,18.092,10.683c1.784,2.173,3.494,4.59,4.413,9.239c0.264,4.244,0.896,8.158,1.829,11.763
		c0.709,3.781,1.719,7.255-0.985,14.157c-1.207,2.532-2.227,5.188-3.064,7.962c-1.062,2.906-3.347,6.731-6.598,11.771
		c-8.129,13.092-16.469,29.733-15.543,49.399c3.707-3.025,1.855-10.59,3.707-15.127c-4.633,18.153-5.557,40.846,5.559,54.462
		c3.705,4.536,10.188,9.077,13.895,1.512c1.852-4.538-2.781-9.078-2.781-13.615c1.855,4.537,7.412,10.59,3.707,16.639
		c-5.559,7.567-12.042,1.514-16.673-4.536c-9.264-12.103-10.19-31.771-9.264-49.925c2.779-21.179,12.968-33.281,20.602-48.304
		c0.905-3.245,1.897-6.433,2.914-9.55c0.456-3.09,0.552-5.605,0.262-7.676c-0.952-3.675-1.819-7.381-2.615-11.07
		c-1.869-2.113-3.915-3.867-6.027-5.119c-6.338-3.756-13.286-2.998-17.915,6.078c5.557-3.404,11.114-9.361,17.063-7.659
		c1.983,0.567,4.009,1.986,6.092,4.633c0.926,4.287,1.904,8.404,2.938,12.396c0.332,2.233,0.365,4.776,0.011,7.91
		c-1.417,3.928-2.727,8.251-3.84,12.807c-10.222,15.298-19.486,33.451-20.412,56.144c-0.926,21.179,8.335,46.899,22.23,46.899
		c4.633,0,8.338-7.563,6.485-15.129c-4.631-10.59-9.264-22.693-6.485-36.308c-4.631,10.591,0,24.205-2.778,34.795
		c-0.926,4.539-7.409,1.513-9.261-3.024c-3.707-10.59-2.781-21.18-2.746-33.272C157.453,171.672,158.436,167.979,158.436,167.979z"
		/>
	<path opacity="0.2" fill="#B3B5B8" d="M155.732,181.382c0.484,3.644,0.484,6.67-0.442,9.696
		c0.926-10.591,2.779-21.179,5.559-30.258c-3.707,13.616-8.337,51.438,3.705,45.385c6.483-3.024,0.926-33.282,12.968-34.796
		c-12.968,16.642,3.705,37.822-1.852,54.463c-4.633,12.102-15.747,3.024-21.306-7.565c-12.042-27.23-3.707-62.026,10.223-81.928
		c3.665-5.908,4.974-9.582,6.071-12.899c1.094-3.314,2.32-6.504,3.634-9.524c-1.831-6.216-3.62-11.634-6.039-13.768
		c-7.404-4.797-16.67-3.662-25.932,1.634c6.485-11.348,14.36-13.616,21.495-10.099c2.378,1.173,4.675,2.99,6.81,5.326
		c0.842,2.812,1.618,5.702,2.381,8.614c0.627,3.077,1.235,6.173,0.18,11.259c-1.23,3.789-2.388,7.575-3.401,11.385
		c-11.719,15.873-22.833,38.566-20.981,64.284c0.926,16.641,11.116,43.873,23.156,34.795c-10.188-1.512-18.525-15.127-20.38-31.769
		c-2.776-30.256,9.266-54.461,22.901-71.169c1.214-4.021,2.795-7.917,4.783-11.631c2.353-5.604,1.464-8.605,0.37-11.504
		c-2.182-5.803-4.069-11.985-5.512-18.988c-1.904-1.976-3.859-3.793-5.866-5.345c-6.02-4.659-12.505-6.926-19.451-3.902
		c7.409-13.615,18.525-12.103,27.557-4.537c3.473-0.757,7.18-0.757,9.491-0.263c-1.078-1.503-3.494-1.461-6.081-1.132
		c-2.774-0.041-6.153-0.834-10.775-3.443c-8.15-4.24-19.266-5.752-25.752,4.838c6.485,6.05,14.126,8.32,21.229,12.046
		c2.367,1.243,4.673,2.646,6.857,4.406c2.372,5.61,4.158,11.535,5.966,17.221c0.905,2.844,1.412,5.98,0.404,10.426
		c-1.204,2.59-2.336,5.289-3.363,8.094c-1.022,2.805-1.939,5.715-4.095,9.529c-14.03,16.943-24.22,47.2-17.734,75.943
		c-9.264-31.769,5.557-62.026,19.056-81.625c1.314-4.233,2.779-8.27,4.191-12.014c-1.008-4.31-2.063-8.488-3.335-11.772
		c-1.696-4.715-3.934-6.803-6.249-8.429c-7.177-3.782-15.052-3.404-22.927,3.404c-4.631,3.026-9.261-1.512-12.042-7.563
		c1.852,0,2.781-4.54,3.707-4.54c1.852,1.513,3.705,4.54,5.557,4.54c10.033,0,20.069-5.253,29.569,0
		c1.815,1.341,3.546,3.309,4.633,8.077c-0.405-6.014-1.558-9.255-3.089-11.271c-8.083-8.615-21.849,1.681-31.112-5.882
		c-1.852-1.513-2.781-4.539-1.852-7.565c2.779-7.565,7.409-12.103,12.966-13.615c9.266-3.026,16.675,6.05,24.723,6.213
		c2.058-1.493,4.423-2.87,3.952-6.437c-2.18-1.812-4.53-3.245-7-4.335c-2.472-1.089-4.944-2.072-7.776-3.312
		c-3.98-2.535-7.748-4.47-10.765-5.803c6.038,0.464,8.057-1.099,10.103-1.971c5.905-2.723,12.054,0.748,18.275,3.141
		c2.566,1.299,4.133,3.779,5.246,5.874c1.438,3.879,2.797,7.869,1.976,14.105c-1.988,4.377-3.777,9.265-6.151,5.923
		c-0.872-1.145-2.76-1.386-4.974-1.056c-2.371-0.026-5.639-1.967-9.084-3.809C167.332,62.487,163.628,64,159.923,64
		c2.315,6.053,5.788,9.833,9.304,13.622c1.759,1.896,3.494,3.874,5.028,6.365c0.391,5.494,1.204,10.493,2.371,15.043
		c0.922,4.744,2.198,9.04-0.337,16.825c-0.849,2.92-1.951,6.53-2.994,10.396c-9.668,16.417-24.489,34.57-20.784,60.289
		c2.778-10.59,4.631-22.693,9.264-31.769c-9.264,21.179-10.192,49.923,0,71.103c-19.453-21.181-14.82-68.077,3.066-89.164
		c4.009-6.319,5.522-10.319,6.544-13.842c1.02-3.522,2.096-6.927,3.141-10.154c-0.896-4.591-1.918-8.892-3.248-12.259
		c-1.625-3.993-3.684-6.075-5.788-7.645c-6.492-3.848-13.441-3.091-18.534,5.986c4.628-10.59,12.968-9.077,19.451-4.538
		c1.852,1.512,3.475,3.785,4.738,7.75c0.753,4.003,1.506,7.973,2.241,11.965c-1.162,3.27-2.236,6.626-3.188,10.045
		c-0.954,3.42-2.584,7.464-6.251,13.613c-11.434,14.114-16.991,36.807-15.139,59.5c1.85,15.129,7.409,28.744,16.673,34.796
		c5.557,4.539,12.968,1.513,11.116-9.077c-0.926-13.616-7.411-24.206-7.411-37.822c-3.705,10.59,2.778,25.719-2.779,30.256
		c-6.483,6.053-10.19-13.614-10.845-23.917C155.482,185.014,155.732,181.382,155.732,181.382z"/>
	<path opacity="0.2" fill="#B3B5B8" d="M155.346,191.478c0.87,7.164,1.796,16.24,5.503,22.292c2.779,3.025,7.409,0,7.409-4.538
		c-0.926-12.103-2.779-27.231,4.633-34.796c-5.559,19.666,6.483,36.309,3.705,52.949c-1.852,6.053-10.19,4.539-15.747,0
		c-21.306-24.204-12.042-71.102,5.349-93.168c3.104-5.309,3.779-8.752,4.434-12.169c0.655-3.419,1.289-6.814,1.836-10.184
		c-1.298-4.703-2.482-9.298-3.249-13.988c-2.184-2.076-4.666-2.864-7.444-2.107c-7.411,1.513-12.042,10.59-20.38,6.053
		c6.946-9.078,15.052-11.348,22.419-8.369c2.453,0.994,4.825,2.569,7.044,4.67c1.204,4.328,2.255,8.803,3.232,13.347
		c-0.973,3.687-2.039,7.767-3.061,12.085c-0.632,2.2-1.525,4.66-3.487,7.967c-13.179,17.197-21.516,45.94-16.886,73.17
		c2.781,13.616,10.192,25.719,20.38,24.205c-12.04,1.514-21.304-19.665-17.599-36.306c-1.855,1.512,0.926,7.565,0,4.538
		c-9.264-22.693,3.705-48.41,14.573-63.126c2.416-3.419,4.093-6.237,5.632-8.94c2.042-6.508,4.343-12.918,5.735-19.433
		c-1.134-3.671-2.098-7.523-2.905-11.464c-0.807-3.944-1.457-7.977-1.957-12.011c-1.434-2.229-2.912-4.383-4.444-6.408
		c-4.591-6.075-9.687-10.991-15.707-13.261c4.633-3.025,10.19-1.513,15.073,2.403c2.676,1.841,4.923,3.106,6.845,3.712
		c1.925,0.605,3.525,0.546,4.902-0.258c3.564,1.166,5.678,2.002,7.762-2.595c-0.309-4.774-3.087-4.774-4.013-7.798
		c0.306,3.781,0.821,7.517-0.833,8.896c-2.107,0.046-4.327-0.016-6.567,0.057c-2.423-0.265-5.831-2.515-9.682-4.596
		c-7.928-4.358-24.603-5.871-23.677,15.308c8.029-4.034,16.881-2.691,24.487,2.798c1.899,1.372,3.681,3.12,5.283,5.325
		c0.662,4.02,1.45,7.793,2.357,11.401c0.91,3.608,1.939,7.054,3.089,10.424c-1.237,3.076-2.397,6.187-3.468,9.34
		c-1.069,3.151-2.049,6.346-2.926,9.591c-14.928,19.197-28.823,50.967-20.485,84.249c-7.412-27.232,0.926-57.488,14.035-76.677
		c3.702-5.753,4.865-9.41,6.223-12.891c3.263-8.468,2.594-12.193,1.829-15.858c-0.975-3.436-2.044-6.819-3.389-9.943
		c-2.386-1.793-4.881-3.011-7.468-3.768c-7.757-2.27-16.327-0.377-25.125,2.648c-1.852,0-4.631-1.513-5.559-4.538
		c0-3.026,0.928-7.563,2.781-7.563c1.85,0,3.704,6.05,4.63,4.537c8.644-2.017,17.29-2.688,25.389,0.223
		c2.023,0.73,4.004,1.706,5.873,3.191c1.796,1.724,2.977,5.784,4.111,10.493c-0.438-5.331-1.375-9.632-2.751-12.311
		c-1.64-1.839-3.443-3.109-4.834-4.623c-9.261-7.563-29.641,9.078-27.789-10.59c1.852-21.18,22.232-13.615,33.18-9.432
		c2.818-0.744,5.494-1.531,7.858-2.513c-0.865-5.518-3.314-7.683-6.029-9.142c-2.718-1.462-5.449-2.681-8.08-3.695
		c-2.629-1.011-5.241-1.907-8.651-3.581c2.472-0.713,4.462-1.545,6.471-2.046c5.367-2.142,10.915-1.298,16.301,1.438
		c2.268,1.387,4.504,3.148,5.077,7.484c3.894-4.231,4.82,1.821,5.746,4.847c-1.852,6.05-3.705,21.18-9.753,14.493
		c-2.958,0.004-6.184,0.056-10.569-2.956C168.258,64,163.628,62.487,158.997,64c4.862,5.673,10.246,11.346,14.533,18.005
		c1.314,2.552,2.126,6.293,2.542,11.054c0.395,4.234,1.162,8.14,2.236,11.732c0.793,3.811-0.732,9.51-3.763,17.672
		c-0.877,2.781-2.636,6.326-6.446,11.558c-7.25,11.673-20.218,28.313-14.662,49.492c1.852-6.05,1.852-13.614,4.631-19.666
		c-9.261,22.693-2.779,51.436,9.264,66.565c-11.116-4.538-17.599-22.693-18.525-39.333c0-21.179,6.483-40.847,16.161-54.429
		c4.404-7.261,5.503-11.744,6.347-15.995c0.844-4.252,1.621-8.394,2.187-12.358c-1.759-6.344-3.768-10.278-6.053-12.716
		c-7.065-5.862-14.938-6.62-23.275,3.215c6.948-4.538,15.055-6.051,21.928-2.813c2.231,1.43,4.324,3.389,5.84,8.145
		c1.083,3.397,1.941,6.973,1.116,12.499c-1.572,4.087-2.933,8.587-4.364,13.54c-16.182,18.553-25.445,54.86-15.256,83.604
		c5.559,12.103,19.453,25.718,24.084,10.591c2.778-12.103-10.19-22.693-8.338-39.335c-4.631,9.077,2.778,22.693-2.779,30.256
		c-5.557,7.566-8.337-9.077-9.932-15.659C155.594,194.641,155.346,191.478,155.346,191.478z"/>
	<path opacity="0.2" fill="#B3B5B8" d="M155.865,198.108c0.351,6.585,4.058,11.124,4.984,15.662
		c-2.781-7.565-4.633-13.615-5.559-22.692c2.779,7.563,4.633,25.717,9.264,19.666c7.409-9.077,0-30.257,9.264-40.846
		c0.926,0,3.705,0,3.705,0c-10.19,15.127-5.559,34.793,0.926,48.409c1.852,6.053-2.778,12.103-5.557,13.616
		c-9.264,1.513-16.675-7.563-20.38-19.666c-8.338-27.232-0.928-59.002,13.174-77.733c3.408-5.682,4.462-9.366,5.58-12.868
		c2.479-7.673,1.915-11.283,1.233-14.715c-1.228-5.013-2.865-7.655-4.713-9.079c-1.902-1.055-3.927-1.338-6.011-0.581
		c-6.485,0-12.042,6.051-19.453,4.539c6.02-11.348,14.126-13.616,21.535-10.076c2.467,1.18,4.86,3.007,7.07,5.357
		c0.791,3.056,1.579,6.149,2.388,9.23c0.643,3.278,1.305,6.546-0.961,13.437c-1.3,3.816-2.477,7.931-5.814,13.896
		c-7.542,10.515-12.176,22.618-15.882,36.234c-4.631,19.666,0,42.359,10.192,55.974c3.705,4.538,10.188,9.076,14.821,1.512
		c-7.411,4.539-13.895-1.512-18.527-10.59c-3.705-9.077-3.705-19.666-3.705-30.256c-0.926,1.513-0.926,4.539-1.855,6.052
		c-2.776-25.718,8.34-48.411,20.459-64.161c2.025-4.047,3.192-7.422,4.362-10.83c1.172-3.408,2.346-6.849,3.375-10.427
		c-1.314-3.494-2.442-7.21-3.384-11.121c-0.94-3.91-1.693-8.015-2.257-12.284c-1.427-2.294-3.012-4.316-4.507-6.315
		c-2.994-3.998-5.541-8.159-6.003-13.454c0-4.538,4.631,1.513,7.739,2.044c3.052,1.911,5.667,3.005,7.87,3.211
		c2.077-0.076,4.111-0.116,5.082,0.553c3.754-2.19,4.165-7.573,2.467-10.347c-0.386,2.143-1.064,3.806-2.631,5.053
		c-1.565,1.247-4.02,2.077-7.959,2.554c-10.716-6.095-24.613-13.658-33.874,1.471c7.411,9.077,17.29,8.74,25.745,13.554
		c2.114,1.203,4.074,2.912,5.816,5.424c0.447,4.332,1.13,8.528,2.032,12.524c0.702,4.18,1.623,8.159-0.248,14.858
		c-1.621,3.538-2.893,7.232-3.878,11.019c-12.793,18.262-22.983,42.468-21.133,71.211c0-6.05,0.926-12.103-0.924-18.153
		c-0.926,10.59,2.779,21.18,2.779,31.769c-7.412-27.232,0.926-57.488,14.152-76.766c3.747-5.769,4.96-9.459,6.392-12.986
		c2.961-7.595,2.418-10.838,1.637-13.751c-0.98-2.699-1.941-5.319-2.916-7.809c-1.859-4.184-4.207-6.109-6.644-7.636
		c-7.526-3.592-15.861-3.592-24.662-0.566c-3.704,1.512-6.483-4.539-9.264-9.077c4.633,3.024,10.19,10.589,14.821,6.05
		c6.948-5.674,13.897-1.987,21.233-0.427c2.435,0.558,4.911,0.877,7.336,0.866c-2.194-3.014-4.729-4.469-7.395-5.239
		c-8.034-2.198-17.239,1.773-24.88-2.765c-1.852-1.512-3.705-4.539-3.705-7.565c6.483-19.666,21.306-15.127,32.862-10.525
		c3.854,1.562,6.52,1.142,8.84,0.476c0.978-2.136,0.096-5.834-0.807-9.617c-2.437-1.597-4.942-2.983-7.454-4.223
		c-2.514-1.241-5.035-2.334-7.505-3.341c3.241-3.026,6.251-3.783,9.296-3.465c3.043,0.318,6.118,1.711,9.488,2.984
		c1.595,3.507,4.374,3.507,6.226,8.044c1.235,3.783,1.359,8.703-1.962,17.808c-1.321,1.258-2.701,0.957-4.156,0.081
		c-1.459-0.875-3.913-0.747-6.05-0.41c-3.578-0.836-6.359-6.889-10.064-3.862c1.852,4.538,3.939,8.32,6.057,12.084
		c2.121,3.763,3.111,10.775,4.032,19.327c0.479,3.589,1.127,6.929,1.883,10.06c-1.141,3.247-2.287,6.44-3.361,9.661
		c-1.076,3.22-2.081,6.471-4.581,10.806c-10.513,15.215-22.555,33.368-19.779,59.087c0.928,3.026,1.855,1.513,1.855-1.513
		c-3.705,16.642,3.705,33.283,12.042,40.846c-12.042-6.05-18.525-27.23-15.747-46.897c2.779-16.641,7.409-33.283,15.836-44.2
		c4.38-6.835,5.655-11.108,6.46-15.06c0.807-3.95,1.534-7.818,2.039-11.553c-1.843-6.43-3.719-11.369-5.924-14.093
		c-6.834-6.62-13.78-8.133-19.337,6.241c4.322-6.557,9.158-8.574,13.756-7.454c2.299,0.561,4.533,1.935,6.584,4.161
		c0.931,4.583,2.184,9.112,3.503,13.742c-1.013,3.61-1.955,7.455-2.785,11.441c-0.515,2.027-1.293,4.306-2.454,6.918
		c-8.415,13.549-14.9,27.166-17.678,46.832c-2.778,24.206,5.557,52.949,22.23,52.949c1.855,0,3.707-1.514,4.633-4.538
		c0.926-7.565-0.926-13.615-3.705-19.668c-3.707-10.59-2.781-21.179,0-31.769c-8.337,10.59-2.781,28.745-6.485,40.846
		c-2.778,9.079-6.483-6.05-8.936-10.528C156.345,200.727,155.865,198.108,155.865,198.108z"/>
	<path opacity="0.2" fill="#B3B5B8" d="M156.866,203.782c1.202,3.936,2.131,6.962,3.983,9.988
		c-5.559-10.589-4.633-24.205-4.633-36.308c-1.852,12.103-0.926,27.23,6.485,34.796c0.926,0,2.779-1.513,3.705-3.026
		c2.779-12.103,0-36.309,11.116-37.822c-9.264,9.078-7.411,30.259-0.926,43.873c3.705,7.566-0.926,15.129-5.559,16.642
		c-6.483,1.513-12.04-6.052-15.747-13.616c-13.894-28.743-3.707-65.052,11.355-86.084c1.616-2.743,2.605-4.93,3.23-6.774
		c1.059-3.62,2.273-7.132,3.606-10.489c-0.844-3.765-1.745-7.485-2.715-11.196c-1.66-3.749-3.777-5.269-6.027-6.259
		c-6.902-2.114-15.005,0.532-22.417,4.316c6.485-9.078,14.589-12.103,21.841-9.439c2.416,0.889,4.741,2.409,6.874,4.548
		c1.16,3.492,2.142,7.151,3.082,10.864c0.288,2.083,0.236,4.524-0.203,7.544c-1.406,3.294-2.706,6.964-3.833,10.877
		c-11.086,16.452-21.276,36.118-21.276,61.837c0,19.667,9.261,42.359,23.156,42.359c-17.599-4.538-23.156-40.846-14.82-63.539
		c-2.779,3.026-0.926,10.59-3.705,13.615c-4.631-19.668,8.337-34.795,15.684-47.664c3.641-4.715,5.082-7.77,5.831-10.113
		c2.75-7.682,5.197-13.948,4.301-17.603c-1.188-3.444-2.128-7.207-2.764-11.318c-0.683-5.166-1.754-9.086-3.4-11.483
		c-5.349-6.015-11.778-9.988-18.724-12.255c1.852-3.026,4.633-1.513,7.411-1.513c-1.852-1.513-3.707-1.513-4.633-4.539
		c4.633-3.026,9.264,0,13.911,2.146c5.007,3.705,8.178,4.261,10.814,3.104c3.082,2.141,5.192,1.805,7.063-3.383
		c0.187-5.1-1.373-8.17-3.071-10.943c-0.772,4.538-0.922,8.727-2.931,10.701c-1.983-0.271-4.43-0.191-7.149,0.091
		c-11.226-4.742-26.973-12.305-35.31,5.849c8.644,6.052,18.937,5.379,27.78,10.416c2.21,1.261,4.242,3.123,6.067,5.798
		c0.57,4.267,1.345,8.319,2.318,12.137c0.774,3.985,1.747,7.738,0.484,13.492c-1.286,3.154-2.486,6.465-3.529,9.896
		c-1.043,3.429-4.228,8.358-8.069,14.653c-8.377,12.275-14.863,28.916-14.863,48.583c0-1.513,0-4.538,0-6.051
		c-2.776,10.591,0,21.181,1.855,30.257c-8.338-31.769,2.778-63.54,18.548-83.261c1.104-4.275,2.409-8.366,3.835-12.181
		c1.141-5.668,0.222-9.113-0.86-12.394c-1.261-3.105-2.69-6.047-4.439-8.707c-2.882-1.793-5.894-2.969-8.981-3.727
		c-9.261-2.268-19.22-0.755-28.484-0.755c12.351,1.259,24.704-7.986,35.981-1.472c2.189,1.548,4.334,3.727,5.847,8.964
		c0.07-5.924-1.069-9.005-2.807-10.709c-1.737-1.7-3.822-2.836-5.674-4.346c-9.264-4.539-23.158,4.537-25.011-7.566
		c-2.781-22.693,23.158-16.64,34.557-10.483c2.914-0.208,5.599-0.328,7.889-0.371c0.007-2.988-0.208-6.409-0.098-9.864
		c-2.98-3.487-6.453-4.999-9.926-6.134c-3.475-1.134-6.948-1.891-10.19-3.404c6.948-4.539,13.895-0.567,20.843,2.341
		c2.109,1.229,3.036,4.037,3.772,6.566c1.321,0.17,3.174,0.17,4.1,0.17c0.926,3.53,0.426,8.483-2.954,16.962
		c-1.462,4.203-3.239,3.651-5.096,0.774c-2.159-1.016-4.696-0.677-8.143-2.201c-4.186-1.919-7.891-4.945-12.522-6.458
		c0,1.513,0,3.026,0,4.539c-1.852,4.538-5.559,3.026-8.337,3.026c5.094-0.758,9.727,1.89,13.958,5.902
		c2.117,2.007,4.093,4.452,5.896,7.226c0.861,5.123,1.988,9.857,3.354,14.228c1.13,4.534,2.5,8.707,0.582,15.46
		c-0.854,2.912-1.897,5.946-2.926,9.073c-1.031,3.126-3.022,6.835-6.904,12.164c-7.475,13.1-17.667,28.229-15.812,47.896
		c1.852-10.591,6.485-18.155,9.264-27.231c-9.264,18.153-12.042,45.386-1.852,65.052c3.705,6.051,10.188,10.59,15.747,7.563
		c-12.042,12.103-23.158-10.59-25.937-25.717c-5.559-30.259,7.409-55.975,20.151-73.997c0.889-3.011,1.805-5.987,2.64-8.946
		c2.009-6.46,1.457-9.797,0.844-13.074c-0.772-3.091-1.6-6.118-2.565-8.997c-1.923-1.986-4.009-3.413-6.188-4.294
		c-6.546-2.643-13.958-0.374-20.441,6.434c1.852,1.513,3.707,3.026,5.559,1.513c5.248-6.557,10.396-7.9,15.024-5.909
		c2.313,0.996,4.437,3.147,6.151,7.357c0.484,4.549,1.328,9.101,2.371,13.685c-1.024,3.402-2.081,6.71-3.075,9.994
		c-0.997,3.285-3.737,7.89-7.073,13.705c-9.694,14.114-16.177,35.294-14.325,56.474c0.926,15.129,6.483,27.232,14.821,33.281
		c4.631,3.028,12.042,6.052,12.968-1.512c0.926-18.153-9.264-34.795-3.705-52.949c-7.411,9.077-3.707,25.719-4.633,39.334
		c0,3.025-1.852,6.052-3.705,6.052c-2.779-1.513-4.631-6.052-5.838-10.851C157.474,205.854,156.866,203.782,156.866,203.782z"/>
	<path opacity="0.2" fill="#B3B5B8" d="M157.8,207.27c-0.657-1.064-1.583-4.088-1.583-7.114c1.852,6.05,3.707,15.127,8.338,15.127
		c0.926,0,2.778-3.024,2.778-6.05c0-12.103-0.926-33.283,8.338-37.822c-5.559,15.129-3.707,30.259,2.778,45.386
		c0.926,3.026,0.926,9.078-0.926,12.102c-7.411,9.078-16.673,0-21.306-7.562c-16.673-33.283-1.852-72.615,14.107-96.265
		c0.982-4.007,2.025-7.975,3.029-11.878c-0.856-3.817-1.733-7.561-2.545-11.338c-1.831-2.767-3.835-4.739-6.048-5.636
		c-4.425-1.792-9.47-0.448-15.026,5.605c-1.852,1.512-4.633,0-6.485-1.513c6.948-11.348,15.284-13.237,22.555-8.871
		c2.353,1.808,4.591,4.31,6.228,9.478c1.373,3.631,2.353,7.762,3.16,12.159c-1.618,3.671-3.12,7.866-4.418,12.375
		c-0.791,2.314-2.105,5.083-4.935,9.342c-13.326,18.464-20.738,45.696-14.254,72.927c3.707,13.616,13.897,30.256,24.087,19.666
		c-4.633,4.539-9.264,3.026-12.968-1.512c-11.118-15.128-11.118-39.334-5.559-59c-1.852,6.05-1.852,13.615-4.631,19.666
		c-3.705-21.179,6.485-37.82,15.118-52.146c2.381-3.376,4.107-6.208,5.702-8.939c0.666-2.148,1.352-4.3,1.988-6.446
		c1.272-4.293,2.353-8.567,2.711-12.754c-0.94-3.653-1.731-7.538-2.161-11.791c-1.272-8.318-3.747-12.205-6.259-16.039
		c-2.509-3.836-5.056-7.617-7.835-11.399c3.705-4.539,7.409,1.513,11.111,1.624c3.585,1.857,6.16,1.138,8.709,0.697
		c5.19,3.729,6.116-3.834,8.894-11.398c-0.926-3.026-3.705-9.077-7.374-11.244c-1.89-0.859-2.816-0.859-4.668-0.859
		c2.779,3.026,5.337,6.799,5.644,15.008c-2.339,2.678-4.995,3.94-7.863,4.499c-10.749-5.891-26.496-14.968-35.759,3.186
		c3.705-1.513,4.631,4.537,3.705,9.077c8.646-1.008,18.114,0.671,26.252,6.891c2.035,1.556,3.824,3.901,4.872,8.845
		c0.325,3.251,0.858,6.257,1.562,9.079c0.273,3.215,0.72,6.243,0.016,10.348c-0.765,2.933-1.513,5.891-2.248,8.863
		c-0.734,2.975-1.806,6.137-5.29,10.817c-7.564,10.209-14.049,22.312-17.756,37.441c0.928-3.026,1.855-6.053,2.781-10.591
		c-4.631,12.102-6.483,28.744-3.707,42.36c-4.631-28.745,5.559-55.975,19.414-72.522c1.253-3.744,2.35-7.232,3.431-10.619
		c2.332-6.923,1.511-10.271,0.648-13.634c-1.048-3.168-2.135-6.351-3.351-9.461c-2.54-1.932-5.164-3.445-7.867-4.58
		c-8.104-3.404-16.904-3.404-26.166-1.133c-0.926,0-5.559-3.026-5.559-9.078c3.707,22.693,23.158,1.514,34.274,6.051
		c2.315,1.513,4.399,3.782,6.483,6.052c2.781,4.538,1.855,12.102,4.633,13.615c1.852,1.513-2.779-3.025,0-4.537
		c0.926,0,1.852,3.024,1.852,6.05c-1.852-7.563-2.778-18.153-7.823-22.357c-1.955-1.26-3.987-2.227-6.071-2.983
		c-6.252-2.27-12.971-2.648-19.454-3.403c-2.778,0-6.483-1.513-5.557-6.053c4.631-19.666,22.232-16.64,32.265-9.768
		c3.803,1.729,6.396,1.492,8.569,1.047c2.346-1.194,1.93-5.145,1.775-9.432c0-1.513-2.778-1.513-3.655-3.613
		c-2.133-1.135-4.308-2.122-6.488-3.016c-2.182-0.893-4.369-1.691-6.53-2.447c4.631-7.565,10.19,0,15.08-0.815
		c2.975,1.457,5.456,2.604,5.966,5.336c1.742,3.28,3.436,6.741,4.308,11.054c-1.625,4.933-3.099,9.858-4.75,10.969
		c-2.07-0.077-4.2-2.203-7.54-1.705c-5.653,0.879-10.286-11.224-16.769-3.659c1.852-1.513,2.779,3.026,4.631,3.026
		c-2.778-1.513-4.631-3.026-7.409,0c4.631,1.512,8.567,4.916,12.117,9.034c1.775,2.058,3.333,4.631,4.32,8.79
		c0.503,4.846,1.359,9.263,2.509,13.292c0.894,4.221,2.046,8.091-1.242,16.03c-0.952,2.583-1.923,5.224-2.998,8.035
		c-9.149,17.433-23.97,34.074-21.191,59.792c1.852-7.563,4.631-16.64,6.485-24.206c-3.707,9.079-4.633,21.181-5.559,31.771
		c0,18.154,10.19,40.847,22.232,34.795c-7.411,6.053-15.747,0-20.38-10.59c-4.633-10.59-7.409-21.179-6.483-33.283
		c1.85-19.666,8.335-37.82,17.445-49.822c3.213-5.69,4.572-9.541,6.198-12.943c2.741-7.358,2.107-10.513,1.469-13.646
		c-0.819-2.928-1.642-5.835-2.505-8.67c-2.074-2.221-4.315-3.97-6.63-5.157c-6.946-3.556-14.587-2.043-20.609,7.034
		c6.483-4.539,13.663-6.808,19.996-4.837c2.11,0.656,4.128,1.785,5.994,3.459c1.073,3.758,2.145,7.48,3.237,11.162
		c0.351,2.093,0.087,4.9-1.022,8.902c-1.148,3.441-2.21,7.064-3.473,11.036c-17.323,20.2-27.511,62.559-12.69,91.303
		c4.633,7.562,12.042,15.129,19.454,9.077c1.852-1.514,2.778-6.05,2.778-9.077c-3.704-12.103-10.19-25.719-7.411-40.847
		c-4.631,12.103-1.852,28.744-5.774,40.133C160.391,214.107,157.8,207.27,157.8,207.27z"/>
	<path opacity="0.2" fill="#B3B5B8" d="M158.541,209.391c1.382,5.891,6.013,8.918,6.939,4.379
		c4.631-13.615-1.852-39.334,11.116-42.36c-9.264,15.129,0.926,34.796,0,51.438c-0.926,10.59-12.042,10.59-17.599,3.025
		c-20.38-28.744-7.414-74.13,9.037-96.092c1.104-2.617,1.848-4.941,2.346-7.054c2.4-9.41,1.656-14.076,1.298-18.458
		c-1.637-4.344-3.866-5.807-6.256-6.739c-7.353-1.761-16.151,1.265-24.026,2.779c6.946-5.296,15.052-8.321,22.23-6.65
		c2.39,0.558,4.68,1.636,6.789,3.327c1.544,3.856,2.795,8.098,3.828,12.631c-0.842,4.248-1.829,8.754-2.804,13.406
		c-0.613,2.367-1.38,4.878-3.578,8.451c-15.349,18.758-26.465,59.605-11.645,88.348c4.633,9.075,11.116,12.103,17.601,10.59
		c-16.675-1.514-25.01-33.282-18.527-57.488c-1.852,4.539-1.852,9.078-1.852,13.616c-6.483-21.179,7.411-40.846,15.595-54.176
		c3.305-4.425,4.523-7.267,5.363-9.596c2.729-7.701,4.642-13.587,3.84-17.302c-1.078-3.498-1.859-7.402-2.273-11.785
		c-0.69-5.793-2.044-9.3-3.705-11.885c-5.33-6.732-11.408-10.987-16.968-17.796c7.411-4.538,13.895,4.539,21.612,6.136
		c2.905-0.132,5.639-0.337,7.063-0.091c2.488,3.75,4.432-1.238,6.623-5.753c0.823-4.823-1.951-9.368-4.64-9.619
		c-0.351-5.284-2.615-7.659-5.173-8.998c-2.558-1.34-5.105-2.097-7.884-1.34c2.315,1.513,4.631,3.213,6.92,5.102
		c2.07,2.246,3.291,6.136,3.688,11.971c-1.726,2.919-3.716,4.444-5.844,5.257c-2.301,0.497-5.669-1.791-9.526-4.227
		c-8.206-4.487-20.249-9.026-26.734,4.59c-1.852,4.538-2.779,12.103,0.926,12.103c9.261-1.01,18.527-0.672,26.64,4.531
		c2.03,1.302,3.885,3.219,5.199,7.028c0.376,3.918,1.412,7.518,2.666,10.881c1.055,3.523,2.332,6.808,0.119,12.962
		c-1.013,3.251-2.065,6.543-3.097,9.884c-10.222,16.739-22.267,34.893-25.043,60.611c1.85-19.666,8.335-39.333,18.443-51.663
		c3.447-5.536,4.549-9.267,5.683-13.022c1.134-3.754,2.299-7.531,3.389-11.432c-0.949-3.074-1.965-6.081-3.171-8.932
		c-1.207-2.853-2.603-5.552-4.308-8.018c-2.797-1.569-5.756-2.493-8.805-2.998c-9.147-1.513-19.105,0.758-27.906,0.758
		c11.116-1.008,23.878-6.053,34.995-1.682c2.779,1.092,5.293,3.339,7.042,9.012c1.214,3.142,2.051,6.604,2.933,10.036
		c0.442,1.718-0.033,4.324-1.162,7.693c-1.13,3.368-2.785,7.464-4.357,11.812c2.785-7.352,5.84-13.896,6.184-17.583
		c-0.166-3.24-0.458-6.295-0.905-9.183c-0.891-5.778-1.981-11.283-4.624-15.485c-2.126-1.934-4.441-3.32-6.874-4.267
		c-7.294-2.835-15.63-1.702-23.041,0.568c-1.852,0-3.705-1.512-3.705-4.539c4.631-22.693,23.158-19.666,32.946-12.797
		c3.67,1.862,6.125,1.85,8.195,1.779c2.764-1.141,3.387-4.108,3.216-8.042c-0.501-4.438-2.367-6.254-4.493-7.509
		c-4.252-2.511-8.677-4.192-13.001-5.2c2.779-3.026,5.557-3.026,8.359-2.181c2.8,0.847,5.62,2.536,8.485,2.893
		c2.61,2.313,7.241,6.851,9.093,11.391c-1.092,4.211-3.375,10.157-5.262,16.253c-2.109-0.213-4.684-3.226-8.279-3.121
		c-5.912-1.029-16.1-10.107-14.248-1.029c0.926,5.294,3.936,9.077,7.46,12.921c1.763,1.922,3.494,4.312,4.54,8.941
		c0.316,4.425,1.017,8.406,2.028,12.012c0.781,3.786,1.838,7.223-1.081,14.39c-0.919,2.682-1.958,5.643-2.912,8.759
		c-10.035,15.593-23.006,33.747-21.151,57.951c0.926-3.025,0.926-7.563,2.778-10.59c-3.707,15.129-3.707,33.282,2.779,46.899
		c4.633,6.051,11.116,15.127,15.749,6.051c2.779-6.051-0.926-10.591-2.781-15.128c2.781,4.537,8.338,13.616,4.633,16.64
		c-14.821,13.616-27.789-18.153-26.863-40.846c0.926-21.179,7.409-42.359,18.385-54.768c1.558-2.466,2.669-4.427,3.424-5.967
		c3.621-10.45,2.998-14.856,2.025-18.937c-1.202-3.799-2.418-7.635-3.69-11.481c-2.105-1.963-4.376-3.457-6.696-4.386
		c-6.965-2.794-14.374-0.525-19.007,9.309c8.335,3.025,12.968-9.077,21.306-7.565c2.084,0.378,3.929,1.636,5.55,3.689
		c0.311,4.68,1.211,9.252,2.474,13.748c0.398,2.555,0.423,5.657-1.2,11.131c-1.01,4.203-2.437,8.628-6.948,15.739
		c-8.214,11.668-13.773,28.308-15.623,46.461c-0.926,21.18,6.483,40.849,18.525,46.899c3.705,1.513,8.338,0,9.264-4.538
		c4.631-18.154-11.116-33.282-2.779-51.437c-12.042,9.077-0.926,33.283-8.013,46.188
		C161.151,215.342,158.541,209.391,158.541,209.391z"/>
	<path opacity="0.2" fill="#B3B5B8" d="M158.784,209.874c-1.642-3.668-1.642-6.692-1.642-9.719
		c-0.926,9.077,3.707,15.127,8.337,16.64c1.852,0,2.779-4.537,2.779-7.563c-1.852-13.616-1.852-33.283,7.411-36.309
		c-7.411,18.155,3.705,39.335-0.926,54.462c-4.633,12.103-19.454-3.024-23.16-18.153c-7.409-28.744,1.855-59,15.391-77.184
		c1.908-3.319,2.722-5.786,3.253-8.025c0.826-4.403,1.661-8.761,2.388-13.03c-1.373-4.805-2.624-9.42-3.389-14.007
		c-2.187-2.152-4.673-3.107-7.451-2.728c-7.411,0-12.042,13.615-19.453,4.538c6.948-7.563,14.821-8.699,21.914-5.051
		c2.362,1.216,4.64,2.963,6.768,5.179c0.931,2.753,1.836,6.013,2.767,9.499c0.283,1.971,0.194,4.402-0.344,7.565
		c-1.324,3.439-2.584,7.354-3.684,11.547c-10.747,15.133-20.01,36.312-20.936,60.518c0,19.667,8.335,42.359,22.23,40.845
		c-14.821-9.075-23.156-39.332-17.599-63.537c3.705-15.128,11.116-25.718,18.368-36.234c1.576-2.574,2.657-4.721,3.216-6.516
		c1.122-3.592,2.514-7.06,4.184-10.365c1.7-4.791,1.305-7.905,0.276-10.597c-2.056-5.38-3.803-11.181-5.185-17.618
		c-1.896-1.731-3.821-3.343-5.763-4.867c-5.833-4.573-11.853-8.355-17.877-12.137c6.485-7.565,13.897-3.026,20.555-0.386
		c4.425,2.653,7.336,2.782,9.53,3.076c6.043,6.386,7.895-1.178,10.519-10.115c-1.225-3.171-2.687-6.072-4.563-8.554
		c-0.559-2.121-2.336-3.428-5.19-4.723c-3.988-1.992-6.766-1.992-10.473-1.992c2.315,1.513,4.692,3.025,7.063,4.648
		c2.184,1.923,4.367,3.954,4.898,9.198c0.014,4.247-2.245,6.005-4.629,7.426c-2.149-0.519-4.741-1.037-8.688-3.362
		c-8.831-4.295-31.063-2.783-26.432,9.32c3.707,10.085,14,9.413,23.5,12.754c2.374,0.836,4.635,2.111,6.661,4.117
		c0.566,3.346,1.279,6.517,2.119,9.557c0.837,3.041,1.803,5.951,2.872,8.773c-0.451,3.302-1.195,6.44-2.072,9.528
		c-0.875,3.087-1.883,6.122-2.863,9.216c-7.984,9.594-14.467,23.21-20.027,36.823c3.705-12.102,10.19-19.666,14.821-30.256
		c-11.116,15.128-20.377,36.309-19.451,60.514c-0.926-25.718,8.335-46.898,19.681-62.151c1.286-2.437,2.238-4.599,2.86-6.5
		c1.069-3.754,2.224-7.466,3.377-11.154c0.269-2.961,0.04-5.19-0.262-7.299c-1.354-6.922-2.991-11.424-5.075-13.727
		c-10.985-9.018-23.979-1.032-36.33-3.553c9.264,1.513,16.675-1.513,25.939-1.513c2.547,0,5.035,0.662,7.409,1.891
		c2.299,1.541,4.479,3.648,6.078,7.983c0.795,2.826,1.567,5.609,2.334,8.357c0.381,3.151,0.76,6.274-0.236,10.879
		c-1.349,3.313-2.535,6.743-3.555,10.26c-12.03,18.117-22.22,39.297-22.22,66.528c0-18.155,4.631-37.821,13.894-49.924
		c-1.852,3.026-3.704,6.053-5.559,9.077c3.707-6.05,7.411-10.589,10.55-17.881c2.407-3.406,4.1-6.131,5.648-8.736
		c2.477-6.407,5.119-12.64,5.138-20.323c-0.912-2.857-1.815-5.725-2.708-8.561c-0.891-2.837-1.773-5.641-2.641-8.374
		c-2.505-2.017-5.103-3.697-7.767-5.148c-7.989-4.35-16.556-6.619-24.894-9.645c5.557-22.692,25.937-12.103,35.869-8.011
		c2.804-0.37,5.346-0.723,7.477-0.958c-0.454-5.77-0.866-11.151-3.08-13.154c-2.46-1.609-5.066-2.837-7.844-3.595
		c1.852-4.538,4.862-4.538,7.98-3.039c3.117,1.498,5.215,6.131,5.482,10.56c2.079,2.527,3.908,5.549,3.44,11.149
		c-1.483,3.468-2.94,5.464-4.514,5.049c-1.63-1.034-4.266-1.328-7.288-0.609c-6.955-0.416-13.438-11.007-20.85-3.443
		c3.707,3.782,7.874,6.807,11.783,10.368c1.955,1.782,3.807,3.792,5.431,6.327c0.374,4.53,1.045,8.85,1.981,12.927
		c0.938,4.078,2.14,7.91,3.576,11.464c-1.059,3.344-2.61,7.269-4.175,11.468c-0.783,2.099-1.712,4.339-2.921,6.835
		c-10.115,16.252-24.01,34.405-20.305,60.124c3.704-4.538,0.926-12.103,2.778-16.64c-3.707,16.64,0,34.793,3.707,49.923
		c-19.454-27.231-5.559-71.102,10.501-91.75c0.763-3.296,1.565-6.371,2.311-9.052c1.553-7.159,0.617-11.414-0.402-15.704
		c-1.901-5.032-4.266-7.544-6.719-9.516c-7.545-4.839-15.88-4.839-24.218,3.482c2.779,3.026,5.557,6.051,8.338,4.539
		c5.248-6.053,10.496-7.565,15.267-5.94c2.383,0.813,4.591,2.7,6.612,5.414c0.524,4.626,1.424,9.283,2.521,13.994
		c-1.289,3.554-2.465,7.188-3.487,10.882c-11.651,19.521-25.546,45.238-19.987,75.497c2.779,15.127,10.19,31.769,21.304,30.256
		c2.781-1.513,6.485-4.539,5.559-9.077c-0.926-16.642-10.19-34.796-1.852-51.438c-11.116,10.591-6.485,31.772-8.838,48.971
		C161.371,215.517,158.784,209.874,158.784,209.874z"/>
</g>
<g>
	<path opacity="0.2" fill="#FFFFFF" d="M186.575,160.27c13.209-7.613,23.399-19.655,25.251-34.475
		c-0.926,6.484-2.778,12.968-5.559,18.526c3.707-9.263,9.266-29.642-3.705-27.789c-6.483,1.852,0,21.305-12.968,22.231
		c-1.852,0-1.852-2.779-0.926-3.705c12.042-8.337,2.779-19.452,0.926-28.716c0-4.632,5.559-6.484,9.264-5.558
		c13.895,3.705,20.377,16.674,19.451,28.716c-1.85,12.968-8.335,24.083-18.069,32.316c-1.902,1.981-2.706,3.434-3.221,4.749
		c-0.804,2.58-1.611,5.137-2.301,7.649c1.186,2.554,2.297,4.957,3.038,7.295c1.864,1.055,3.88,1.486,5.964,1.486
		c4.168,0,8.569-1.621,12.739-4.399c1.85-0.926,5.557,0.925,9.261,1.852c-7.872,6.484-16.21,7.642-23.853,5.211
		c-2.474-1.047-4.874-2.493-6.747-5.71c-1.074-3.005-2.009-5.856,0.25-10.954c0.891-1.642,1.785-3.55,2.849-5.698
		c8.048-6.007,14.533-14.343,18.24-24.533c3.702-9.263,2.776-22.231-6.485-26.863c1.852,9.263,4.631,19.453,0,28.715
		c1.852-3.704,1.852-8.336,5.559-11.115c1.85,15.747-11.118,25.937-21.381,35.736c-0.931,1.857-1.96,3.659-2.947,5.365
		c-3.132,4.775-2.105,7.013-1.384,9.432c0.961,2.299,1.567,4.807,1.742,7.539c1.141,3.206,3.11,4.965,5.234,6.458
		c6.576,4.131,14.566,5.869,21.512,8.648c-2.776,4.632-7.409,2.779-11.116,3.706c4.633-0.926,10.19,0,13.897-3.706
		c-6.022-2.779-12.968-4.399-19.374-7.092c-2.138-0.898-4.214-1.915-6.174-3.134c-1.983-3.693-3.819-7.389-5.557-11.089
		c-0.87-1.851-1.56-3.782-1.815-5.947c1.469-1.94,2.879-3.995,4.168-6.134c1.289-2.141,2.465-4.37,6.23-7.728
		c17.891-12.6,27.153-42.242,6.773-57.064c18.528,12.969,13.895,41.684-2.383,54.029c-3.712,3.784-5.585,6.308-6.644,8.321
		c-1.062,2.013-2.278,3.923-3.611,5.693c-0.442,1.883-0.491,3.412-0.182,4.715c0.996,2.329,2.072,4.586,3.429,6.593
		c1.632,1.378,3.372,2.423,5.243,3.092c3.737,1.338,7.856,1.543,12.487,0c7.411-2.779,14.823-2.779,22.232-3.706
		c0,2.78-1.852,5.558-2.781,8.338c0,0.925,1.855,0.925,2.781,0.925c-8.338-0.925-17.601-4.631-25.937,0.927
		c5.559-0.927,12.968-5.558,16.673-0.927c5.557,6.485-3.705,12.969-10.188,14.822c-8.337,1.853-15.749-0.926-23.638-3.128
		c-1.794,0.478-3.185,1.552-4.097,3.497c2.294,0.98,4.783,1.638,7.355,2.101c1.852,0.541,3.747,1.023,6.312,1.901
		c7.582,2.113,15.917,3.967,24.255,2.113c-6.485,1.853-12.968,3.706-19.325,2.161c-2.084,0.991-4.275,1.477-6.57,1.642
		c-4.589,0.33-9.603-0.634-13.604-1.171c-3.681-1.262-6.095-1.719-7.135-2.402c-2.46-0.23-4.313-2.083-4.313-3.009
		c-0.926-2.317-0.924-5.225,2.449-10.474c1.761-3.151,3.833-3.148,6.029-1.201c0.882,0.14,2.538-0.102,4.285-0.443
		c2.196,0.3,4.794,0.995,7.545,1.96c2.851-1.884,4.703,3.674,7.482,0.895c-1.852-1.389-3.59-2.837-5.248-4.315
		c-1.661-1.478-3.244-2.989-4.787-4.502c-0.643-3.162-1.616-6.106-2.872-8.837c-1.059-2.823-2.402-5.434-3.361-8.139
		c1.289-1.888,2.776-4.116,4.151-6.496c1.378-2.378,3.069-5.039,7.767-9.08c7.129-6.8,17.321-16.988,13.614-28.104
		c-0.926,5.558-3.705,9.264-5.559,13.894c5.559-11.115,11.116-25.01,2.781-36.125c-3.707-4.632-8.337-7.412-13.894-7.412
		c-4.633,0.927-3.707,5.558-1.855,8.338c-0.926-1.852-3.704-3.706-2.778-5.558c0-3.706,3.707-4.632,7.411-3.706
		c11.116,2.779,17.601,12.042,19.451,22.232c1.852,14.821-6.483,26.863-16.663,35.817c-3.861,3.646-5.178,5.945-6.198,8.126
		c-1.022,2.182-2.033,4.356-2.921,6.56c0.699,2.211,1.504,4.345,2.39,6.422c1.167,2.899,2.757,4.475,4.558,5.417
		c3.602,1.884,7.718,2.191,12.351-0.278c-4.013,2.162-7.924,1.852-11.462,0.078c-1.766-0.888-3.379-2.319-4.642-4.804
		c-0.865-2.146-1.726-4.28-2.493-6.48c1.247-2.766,2.491-5.686,3.611-8.69c0.711-1.539,1.869-3.299,4.792-6.077
		c14.828-12.006,23.163-33.312,11.121-49.984c-5.559-6.484-21.306-14.822-23.158-3.706c-0.926,8.337,11.116,15.748,7.412,25.937
		c3.704-7.41-3.707-20.379,3.704-21.305c12.968-1.852,12.968,19.452,8.338,28.715c-3.707,7.41-10.19,12.042-16.738,16.638
		C188.626,159.013,186.575,160.27,186.575,160.27z"/>
	<path opacity="0.2" fill="#FFFFFF" d="M195.262,154.4c8.228-6.373,15.639-14.711,14.713-25.826c0-5.558-1.852-16.674-6.485-13.896
		c-6.483,2.779-2.779,13.896-8.335,21.306c-1.855,1.852-3.707,4.631-8.337,0.926c12.042-6.484,4.631-20.379,3.705-30.569
		c-0.926-7.41,9.264-6.484,13.894-3.706c10.19,5.558,13.895,16.674,13.895,27.79c-0.926,13.895-11.116,25.937-20.843,35.148
		c-1.864,3.893-2.411,6.358-2.839,8.664c0.596,1.441,1.064,2.895,1.368,4.363c1.422,2.605,3.326,3.93,5.641,4.625
		c9.264,1.852,15.747-7.41,24.084-2.778c-7.411,5.558-15.515,7.179-22.819,5.397c-2.435-0.594-4.78-1.566-6.981-2.895
		c-1.581-2.246-2.741-4.913-3.686-7.789c1.104-2.361,2.28-4.946,3.396-7.66c0.674-1.382,1.464-2.853,2.968-4.64
		c6.743-6.496,13.228-12.98,16.935-22.244c5.557-14.82,0-37.979-19.454-37.979c13.894,1.852,21.304,16.674,17.599,29.642
		c0-1.852,0-2.779,0.926-4.632c3.705,14.822-7.411,25.011-16.544,33.812c-4.352,3.658-5.896,6.102-7.271,8.518
		c-1.378,2.415-2.676,4.823-3.475,7.265c1.41,2.029,2.648,4.191,3.697,6.477c1.05,2.286,1.913,4.694,2.58,7.213
		c1.934,1.11,3.924,2.109,5.938,3.072c6.043,2.885,12.297,5.433,17.854,9.602c-5.557,2.778-10.19,2.778-15.836,1
		c-3.84-1.069-8.71-4.243-11.027-3.78c1.623-0.231,4.783,1.642,7.811,2.828c7.009,2.73,19.051,5.51,23.684-2.828
		c-6.483-3.241-13.894-4.631-20.663-7.055c-2.255-0.808-4.441-1.729-6.495-2.874c-1.777-2.381-3.054-4.977-4.172-7.604
		c-0.922-2.734-1.684-5.499-1.583-8.706c1.471-1.494,2.671-3.072,3.66-4.723c0.987-1.65,1.763-3.371,2.884-5.332
		c13.401-11.874,25.443-28.547,19.886-47.073c7.409,19.453-7.411,36.125-19.758,49.257c-1.261,2.66-2.633,5.223-3.92,7.636
		c0.882,2.58,1.901,5.003,3.291,6.8c1.745,2.735,4.016,3.949,6.373,4.854c7.297,2.084,15.401,1.389,23.275-2.78
		c1.852-0.926,4.633,0,6.483,0.927c5.559,2.779,4.633,9.263,2.781,13.895c0-2.78,0-6.484-2.781-7.41
		c-11.116-3.706-21.304,4.631-32.42,0c10.19,6.484,27.789-7.411,29.643,4.631c1.85,16.674-22.234,12.042-34.37,9.132
		c-2.442,0.589-4.67,1.556-6.567,3.266c2.353,1.078,4.963,1.805,7.692,2.286c1.595,0.267,3.382,0.627,5.585,1.252
		c7.281,1.664,14.692,4.444,22.101,3.516c-5.559,1.853-12.042,0-17.257,1.415c-2.837,1.388-5.98,1.804-9.217,1.663
		c-3.239-0.141-6.572-0.841-9.797-1.687c-2.776-0.825-5.47-1.762-6.81-3.463c-2.308,1.146-4.161-1.633-4.161-1.633
		c-0.772-2.47-0.582-5.505,2.872-10.87c1.583-1.036,2.93-1.096,4.114-0.585c1.183,0.511,3.223,0.588,5.302,0.505
		c6.237,0.76,11.797,3.54,18.28,3.54c-2.082-1.621-4.168-3.3-6.24-5.021c-2.077-1.721-4.142-3.486-6.188-5.276
		c-0.863-3.07-1.939-6.013-3.228-8.802c-1.291-2.788-2.79-5.419-4.493-7.864c1.562-2.059,3.316-4.414,4.932-6.919
		c0.809-1.252,1.586-2.541,2.287-3.85c1.815-1.728,3.702-3.544,6.172-5.7c9.537-8.443,16.949-18.632,15.094-31.6
		c-2.779,5.557-3.705,12.041-7.411,17.599c9.266-13.894,7.411-33.347-5.557-44.463c12.968,6.484,17.599,19.453,15.747,33.348
		c-2.779,12.968-11.116,21.305-20.712,29.874c-0.905,2.239-1.894,4.4-2.895,6.439c-1.05,4.294-0.091,7.089,1.272,9.204
		c1.41,2.865,3.33,4.301,5.313,5.428c6.139,2.781,12.854,2.781,17.948-2.777c-4.862,3.474-11.287,4.863-16.935,2.996
		c-1.88-0.622-3.674-1.606-5.295-2.996c-0.617-2.624-1.443-5.121-2.421-7.521c-0.288-1.355-0.161-3.01,0.966-5.483
		c1.324-2.001,2.477-4.08,3.443-6.216c11.907-9.494,22.094-23.39,20.242-39.136c-0.926-12.968-18.525-33.348-26.863-20.38
		c-4.631,8.337,11.116,20.38,2.778,31.496c8.338-6.484,2.781-16.674,2.781-25.01c0-0.926,1.852-1.852,2.778-1.852
		c5.557,0.926,9.264,5.557,11.116,10.189c4.633,11.116-1.852,22.232-9.572,30.318C197.347,152.985,195.262,154.4,195.262,154.4z"/>
	<path opacity="0.2" fill="#FFFFFF" d="M203.157,147.772c5.891-8.083,9.596-19.197,6.817-29.387c0.926,9.263,0,17.6-3.707,25.937
		c5.559-8.337,7.411-30.569-3.705-27.789c-5.557,1.852-0.926,18.526-10.19,23.157c-3.705,0.926-2.778-2.778-3.705-4.631
		c8.338-5.558,6.485-15.748,0.926-23.158c-2.778-4.632,0.926-10.19,5.559-10.19c6.483,0,13.895,1.853,17.599,7.411
		c12.968,20.379,0.926,41.683-15.249,55.746c-1.733,3.247-2.568,5.559-2.949,7.342c-0.379,1.783-0.306,3.037-0.217,4.164
		c1.361,2.916,3.036,4.57,5.04,5.324c6.195,1.527,13.838,0.138,21.713-2.179c1.852,0,2.779,1.854,3.705,2.78
		c-6.485,3.241-13.895,5.095-20.649,4.152c-2.25-0.315-4.427-0.939-6.474-1.927c-1.345-1.451-2.442-3.099-3.396-4.852
		c-0.95-1.755-1.759-3.617-2.528-5.496c1.34-2.043,2.661-4.337,3.866-6.793c0.704-1.249,1.658-2.659,2.93-4.246
		c14.208-11.407,23.472-29.007,16.989-46.606c-2.781-7.41-10.192-12.043-17.601-14.822c15.747,5.558,20.377,25.011,12.042,38.905
		c0-4.631,4.631-6.484,3.705-11.115c3.705,14.821-9.264,26.863-19.526,36.019c-1.188,1.549-2.112,2.944-2.942,4.265
		c-1.663,2.641-3.454,5.138-4.993,7.31c1.548,2.327,2.907,4.811,4.062,7.413c1.153,2.603,2.109,5.325,2.853,8.128
		c1.976,1.714,4.184,2.994,6.471,4.186c4.582,2.384,9.444,4.468,14.075,7.711c-9.264,3.705-16.673-2.779-25.011-3.706
		c8.338,0.926,14.821,6.484,23.158,5.558c3.707-0.926,12.968-3.706,8.335-6.484c-6.946-3.474-15.976-3.3-23.348-7.017
		c-2.346-1.444-4.509-3.319-5.41-7.772c-0.451-2.093-1.081-4.066-1.871-5.938c-0.587-1.981-1.286-3.882,1.558-7.967
		c1.71-2.321,3.052-4.873,5.456-8.041c17.131-12.36,26.395-35.518,14.353-54.044c12.968,16.673,5.559,40.757-11.079,52.1
		c-3.059,2.973-3.943,4.936-4.843,6.839c-0.898,1.901-1.852,3.757-2.816,5.551c0.426,1.969,0.922,3.844,1.469,5.626
		c1.438,3.368,3.337,5.148,5.487,6.29c2.231,0.883,4.603,1.404,7.15,1.404c9.266,0,27.791-10.19,30.569,4.632
		c0-1.854-0.926-2.78-2.779-2.78c3.705,0.926,0.926,3.705,0.926,5.558c-0.926-0.926-0.926-2.778-1.855-3.705
		c-11.577-3.088-23.156,1.544-34.199-1.116c-2.163-0.62-4.308-1.532-6.036-3.655c1.883,2.509,4.27,3.756,6.745,4.669
		c7.554,2.476,15.894,1.953,24.229,1.953c5.559,0,5.559,7.411,2.778,10.19c-9.264,7.411-21.306,4.632-31.287,1.935
		c-3.892-0.747-6.574-0.008-8.698,1.56c0.919,2.146,2.856,2.948,4.984,3.437c2.124,0.489,4.289,0.84,6.951,1.312
		c3.967,1.946,7.671,2.872,12.304,2.872c-1.852-0.926-0.926,1.853-2.53,1.619c-3.029,0.697-4.996,1.565-7.033,2.049
		c-6.104,1.45-12.809-0.566-18.787-2.375c-2.542-0.734-3.015-1.768-3.541-1.926c-1.941-1.901-3.758-3.937-4.918-6.344
		c4.387-3.212,4.387-11.55,10.054-8.349c0.943,0.636,4.123,0.339,7.772,1.299c2.308,1.058,4.163,1.058,6.015,1.058
		c-0.926-3.704-3.012-6.253-5.3-8.57c-0.196-3.048-0.774-5.898-1.674-8.552c-0.9-2.652-2.124-5.11-3.62-7.374
		c1.492-2.212,3.188-4.625,4.75-7.158c0.781-1.266,1.703-2.62,2.879-4.141c11.301-9.595,23.343-23.489,19.638-39.237
		c-2.779,2.779-0.926,6.484-1.852,9.264c1.852-8.337,3.707-17.6-1.852-25.01c-3.707-3.706-13.894-12.043-17.601-3.706
		c-1.852-0.926-2.778-3.706-0.926-4.632c9.264-3.706,19.454,3.706,23.161,12.042c7.409,18.526-1.855,37.979-16.294,49.015
		c-1.389,1.601-2.383,2.963-3.2,4.17c-3.347,5.593-2.813,7.905-2.149,10.079c0.863,2.021,1.773,3.962,2.799,5.736
		c1.705,1.742,3.536,3.075,5.482,3.889c3.889,1.628,8.108,1.526,12.433-1.563c-4.324,3.089-8.644,3.5-12.594,2.236
		c-1.974-0.631-3.828-1.745-5.519-3.283c-0.84-2.604-1.773-5.109-2.785-7.539c-0.316-1.362-0.264-2.966,0.164-4.931
		c1.45-2.533,2.76-5.235,4.081-8.12c16.654-12.635,29.622-38.572,12.023-55.246c-3.707-4.631-14.821-12.968-19.453-2.778
		c-2.779,8.336,10.19,16.674,5.559,26.863c5.557-6.484-0.926-19.453,4.631-21.305c13.895-2.78,12.042,20.379,6.783,30.868
		C204.729,145.964,203.157,147.772,203.157,147.772z"/>
	<path opacity="0.2" fill="#FFFFFF" d="M208.681,139.938c2.219-7.659,3.145-15.07,1.293-22.48
		c1.852,5.558,0.926,11.116,0.926,16.673c0.926-7.41-2.778-26.863-9.264-19.452c-4.631,4.632-0.926,22.232-12.968,23.158
		c9.264-6.484,7.411-19.453,0.926-28.715c-0.926-1.853-0.926-5.558,0.926-6.485c11.116-5.557,22.232,3.706,25.939,13.896
		c5.557,15.747-1.855,34.273-14.762,43.999c-2.615,2.499-3.532,4.048-4.308,5.484c-1.277,2.801-2.75,5.476-4.336,7.946
		c1.703,3.693,3.445,6.772,5.786,8.035c7.196,2.852,16.229,2.158,25.029-1.548c-7.409,7.41-15.747,7.642-23.39,4.283
		c-2.474-1.414-4.806-3.418-6.654-7.442c-1.059-1.758-1.831-3.71,0.695-8.153c1.183-1.974,2.227-4.083,4.271-6.759
		c12.11-9.72,21.371-23.614,18.593-39.361c-1.85-11.116-9.261-20.38-20.377-21.306c15.747,3.706,21.304,22.232,14.82,35.2
		c0.926-3.706,0-8.337,1.852-12.042c9.264,18.526-11.116,30.569-20.897,42.493c-1.253,2.258-2.54,4.438-3.559,6.495
		c-0.66,1.836-0.907,3.387-0.582,4.649c1.09,2.313,1.859,4.858,2.224,7.664c0.739,3.356,2.161,5.45,3.88,7.078
		c5.503,4.279,11.757,7.579,18.008,10.358c-7.412,2.778-15.747,0-23.242-3.351c-4.004,0.284-6.794,0.82-8.125,1.316
		c-1.331,0.497-2.753,2.112-1.981,2.962c-0.152-1.082,1.359-2.494,3.461-2.453c1.74,0.099,3.859,0.054,6.134-0.142
		c2.46,0.025,5.936,1.073,10.085,2.38c7.182,2.067,18.298,4.847,22.931-3.491c-6.948-2.778-13.894-5.095-20.473-8.103
		c-2.191-1.003-4.341-2.083-6.436-3.282c-1.378-2.249-2.587-4.63-3.779-7.009c-1.01-2.479-2.004-4.957-2.152-7.853
		c1.031-2.007,2.269-4.09,3.485-6.247s3.281-4.675,7.599-8.472c8.789-8.128,17.124-18.317,16.2-31.285
		c0.924,3.705-1.855,6.484-0.926,10.189c3.702-12.042,0-25.937-10.192-34.274c23.161,16.674,9.264,47.242-9.083,61.015
		c-0.894,2.003-1.904,3.955-2.989,5.832c-0.896,2.07-1.179,3.624-0.87,4.792c0.992,2.072,1.948,4.18,2.914,6.295
		c1.296,2.177,2.928,3.377,4.713,4.166c3.567,1.579,7.479,2.195,11.801,1.269c7.409-1.852,14.821-5.558,23.158-2.779
		c-8.338,8.337-28.717,8.337-40.76,2.779c1.855,0.926,3.707,2.779,5.559,3.706c9.264,3.704,25.937-4.632,26.863,3.704
		c2.781,17.6-24.084,9.264-37.354,8.866c-1.923,0.837-2.182,2.432-1.382,4.507c2.112,0.984,4.406,1.719,6.74,2.326
		c2.334,0.606,4.67,1.12,6.941,1.579c3.513,1.181,7.414,2.359,10.807,3.137c-4.743-0.365-7.484-0.284-9.442,0.096
		c-1.803,0.421-3.674,0.627-5.566,0.692c-3.782,0.129-7.641-0.307-11.186-0.718c-3.094-3.811-9.579-1.959-11.432-5.663
		c-0.772-2.162,0.138-5.335,3.697-10.581c1.487-2.548,3.244-2.486,5.141-0.651c1.63,0.47,4.965,0.757,9.341,2.288
		c4.053,2.459,8.684,1.532,12.388,2.459c-0.926-0.927-1.852-1.853-2.778-2.78c3.705-1.852,7.411-0.926,11.116-0.926
		c-6.252-0.695-12.505-2.953-18.092-6.541c-1.784-1.331-3.494-2.811-4.413-5.657c-0.264-2.598-0.893-4.996-1.827-7.203
		c-0.711-2.315-1.721-4.441,0.982-8.667c1.207-1.55,2.227-3.177,3.064-4.876c1.062-1.779,3.347-4.121,6.598-7.207
		c8.132-8.016,16.469-18.205,15.543-30.247c-3.707,1.852-1.855,6.484-3.707,9.263c4.633-11.116,5.557-25.011-5.559-33.347
		c-3.705-2.78-10.188-5.558-13.895-0.927c-1.852,2.779,2.781,5.559,2.781,8.337c-1.855-2.778-7.411-6.484-3.707-10.19
		c5.559-4.632,12.042-0.926,16.675,2.78c9.261,7.41,10.188,19.452,9.261,30.568c-2.779,12.968-12.968,20.379-20.602,29.577
		c-0.905,1.987-1.897,3.939-2.914,5.848c-0.456,1.891-0.552,3.431-0.262,4.7c0.952,2.251,1.82,4.52,2.615,6.779
		c1.869,1.293,3.915,2.368,6.027,3.134c6.338,2.299,13.286,1.836,17.915-3.722c-5.557,2.084-11.114,5.731-17.063,4.69
		c-1.983-0.348-4.009-1.216-6.092-2.837c-0.926-2.625-1.904-5.146-2.938-7.591c-0.332-1.367-0.365-2.923-0.012-4.842
		c1.417-2.405,2.729-5.053,3.84-7.842c10.225-9.367,19.487-20.483,20.413-34.377c0.926-12.968-8.335-28.716-22.23-28.716
		c-4.633,0-8.338,4.632-6.485,9.264c4.631,6.484,9.264,13.894,6.485,22.231c4.631-6.484,0-14.821,2.778-21.305
		c0.926-2.78,7.409-0.926,9.264,1.852c3.704,6.484,2.778,12.968,2.743,20.372C209.663,137.677,208.681,139.938,208.681,139.938z"/>
	<path opacity="0.2" fill="#FFFFFF" d="M211.385,131.732c-0.484-2.231-0.484-4.085,0.442-5.937
		c-0.926,6.484-2.778,12.968-5.559,18.526c3.707-8.337,8.337-31.495-3.705-27.789c-6.483,1.852-0.926,20.379-12.968,21.305
		c12.968-10.19-3.704-23.158,1.852-33.348c4.633-7.409,15.747-1.852,21.306,4.633c12.042,16.673,3.707,37.978-10.223,50.165
		c-3.665,3.617-4.972,5.867-6.071,7.898c-1.095,2.03-2.32,3.983-3.634,5.833c1.831,3.805,3.623,7.123,6.039,8.43
		c7.404,2.936,16.67,2.243,25.932-1c-6.485,6.947-14.36,8.336-21.495,6.182c-2.379-0.718-4.675-1.83-6.811-3.261
		c-0.842-1.721-1.618-3.492-2.381-5.275c-0.627-1.883-1.235-3.779-0.18-6.892c1.23-2.32,2.388-4.639,3.4-6.972
		c11.72-9.719,22.833-23.614,20.981-39.361c-0.926-10.19-11.116-26.864-23.156-21.305c10.188,0.925,18.525,9.263,20.38,19.453
		c2.776,18.526-9.266,33.347-22.901,43.578c-1.214,2.461-2.795,4.846-4.783,7.12c-2.353,3.431-1.462,5.269-0.37,7.044
		c2.182,3.554,4.069,7.339,5.513,11.627c1.904,1.209,3.859,2.322,5.865,3.273c6.02,2.852,12.505,4.241,19.451,2.389
		c-7.409,8.336-18.525,7.41-27.557,2.778c-3.473,0.463-7.18,0.463-9.491,0.16c1.078,0.922,3.494,0.895,6.081,0.694
		c2.776,0.024,6.153,0.511,10.775,2.108c8.151,2.596,19.267,3.522,25.752-2.962c-6.485-3.704-14.126-5.095-21.229-7.376
		c-2.367-0.76-4.673-1.62-6.857-2.698c-2.371-3.434-4.158-7.062-5.966-10.545c-0.905-1.741-1.412-3.661-0.404-6.383
		c1.204-1.587,2.336-3.239,3.363-4.957c1.022-1.718,1.939-3.499,4.095-5.835c14.03-10.375,24.22-28.901,17.735-46.5
		c9.264,19.452-5.557,37.979-19.056,49.98c-1.315,2.591-2.779,5.063-4.191,7.355c1.008,2.639,2.063,5.198,3.335,7.208
		c1.696,2.887,3.934,4.166,6.249,5.161c7.18,2.315,15.052,2.084,22.927-2.084c4.633-1.853,9.261,0.925,12.042,4.631
		c-1.852,0-2.781,2.78-3.707,2.78c-1.852-0.926-3.702-2.78-5.557-2.78c-10.033,0-20.069,3.217-29.569,0
		c-1.815-0.822-3.545-2.027-4.633-4.945c0.404,3.682,1.558,5.667,3.089,6.902c8.083,5.274,21.849-1.03,31.112,3.602
		c1.855,0.926,2.781,2.78,1.855,4.632c-2.781,4.632-7.411,7.41-12.968,8.337c-9.266,1.853-16.675-3.705-24.723-3.804
		c-2.058,0.913-4.423,1.756-3.952,3.942c2.18,1.11,4.53,1.987,7,2.653c2.472,0.666,4.944,1.269,7.776,2.028
		c3.98,1.553,7.748,2.737,10.765,3.554c-6.039-0.284-8.057,0.672-10.101,1.208c-5.908,1.666-12.056-0.458-18.277-1.924
		c-2.566-0.796-4.133-2.315-5.246-3.597c-1.438-2.375-2.797-4.818-1.976-8.636c1.988-2.681,3.777-5.674,6.151-3.627
		c0.872,0.701,2.76,0.849,4.975,0.647c2.371,0.016,5.641,1.204,9.083,2.332c2.776,2.446,6.481,1.52,10.185,1.52
		c-2.315-3.706-5.788-6.021-9.304-8.341c-1.759-1.16-3.494-2.373-5.028-3.898c-0.391-3.363-1.204-6.424-2.371-9.211
		c-0.922-2.905-2.198-5.536,0.337-10.302c0.849-1.787,1.95-3.997,2.994-6.365c9.668-10.052,24.489-21.168,20.784-36.915
		c-2.779,6.484-4.631,13.895-9.264,19.453c9.264-12.968,10.192-30.569,0-43.538c19.454,12.969,14.821,41.684-3.066,54.596
		c-4.009,3.87-5.522,6.318-6.544,8.474c-1.02,2.158-2.096,4.243-3.141,6.218c0.898,2.811,1.918,5.445,3.249,7.506
		c1.625,2.445,3.683,3.72,5.788,4.681c6.495,2.356,13.441,1.893,18.534-3.665c-4.628,6.484-12.968,5.558-19.451,2.779
		c-1.852-0.925-3.475-2.318-4.738-4.744c-0.753-2.451-1.506-4.882-2.24-7.327c1.162-2.002,2.236-4.056,3.188-6.15
		c0.954-2.095,2.587-4.571,6.252-8.335c11.434-8.643,16.991-22.537,15.139-36.432c-1.85-9.264-7.409-17.601-16.673-21.306
		c-5.557-2.779-12.968-0.926-11.116,5.558c0.926,8.337,7.411,14.821,7.411,23.158c3.705-6.484-2.779-15.748,2.778-18.526
		c6.483-3.706,10.19,8.336,10.845,14.644C211.635,129.508,211.385,131.732,211.385,131.732z"/>
	<path opacity="0.2" fill="#FFFFFF" d="M211.771,125.549c-0.87-4.386-1.796-9.943-5.503-13.649c-2.779-1.852-7.409,0-7.409,2.779
		c0.926,7.411,2.779,16.674-4.633,21.306c5.559-12.042-6.483-22.232-3.704-32.421c1.852-3.706,10.19-2.779,15.747,0
		c21.306,14.821,12.042,43.536-5.349,57.048c-3.104,3.251-3.777,5.358-4.434,7.451c-0.655,2.092-1.289,4.171-1.836,6.234
		c1.298,2.881,2.481,5.694,3.248,8.566c2.184,1.271,4.666,1.754,7.444,1.291c7.412-0.927,12.042-6.484,20.38-3.706
		c-6.946,5.558-15.052,6.947-22.419,5.124c-2.453-0.609-4.825-1.574-7.044-2.86c-1.205-2.65-2.255-5.39-3.232-8.173
		c0.973-2.257,2.039-4.756,3.061-7.4c0.631-1.347,1.525-2.853,3.487-4.879c13.179-10.529,21.516-28.129,16.886-44.802
		c-2.781-8.337-10.192-15.748-20.38-14.822c12.042-0.926,21.304,12.042,17.599,22.232c1.855-0.926-0.926-4.632,0-2.778
		c9.264,13.894-3.705,29.641-14.573,38.652c-2.416,2.093-4.093,3.819-5.632,5.474c-2.042,3.984-4.343,7.91-5.732,11.898
		c1.132,2.248,2.096,4.606,2.902,7.02c0.807,2.415,1.457,4.884,1.958,7.354c1.434,1.365,2.912,2.684,4.444,3.923
		c4.591,3.72,9.687,6.731,15.707,8.12c-4.631,1.852-10.19,0.926-15.073-1.471c-2.676-1.127-4.923-1.902-6.846-2.272
		c-1.925-0.371-3.525-0.336-4.902,0.158c-3.564-0.714-5.678-1.227-7.762,1.588c0.309,2.923,3.087,2.923,4.013,4.776
		c-0.306-2.315-0.821-4.603,0.833-5.447c2.107-0.028,4.327,0.009,6.567-0.036c2.423,0.164,5.83,1.54,9.682,2.815
		c7.928,2.669,24.604,3.595,23.677-9.374c-8.029,2.47-16.881,1.648-24.487-1.713c-1.899-0.841-3.681-1.911-5.283-3.261
		c-0.662-2.461-1.45-4.771-2.357-6.981c-0.91-2.209-1.939-4.32-3.089-6.381c1.237-1.885,2.397-3.789,3.468-5.719
		c1.069-1.93,2.049-3.886,2.926-5.872c14.928-11.756,28.822-31.208,20.485-51.587c7.411,16.674-0.926,35.2-14.035,46.949
		c-3.702,3.523-4.864,5.762-6.223,7.893c-3.263,5.186-2.594,7.466-1.829,9.71c0.975,2.104,2.044,4.175,3.389,6.088
		c2.386,1.098,4.881,1.844,7.467,2.307c7.758,1.389,16.327,0.232,25.127-1.622c1.85,0,4.629,0.927,5.557,2.779
		c0,1.852-0.928,4.631-2.781,4.631c-1.85,0-3.705-3.705-4.631-2.779c-8.644,1.236-17.29,1.646-25.387-0.137
		c-2.025-0.445-4.006-1.044-5.875-1.953c-1.796-1.056-2.977-3.542-4.112-6.426c0.437,3.264,1.375,5.898,2.75,7.539
		c1.64,1.126,3.445,1.904,4.834,2.83c9.264,4.632,29.643-5.558,27.789,6.484c-1.852,12.968-22.232,8.336-33.18,5.774
		c-2.818,0.456-5.494,0.939-7.858,1.54c0.865,3.379,3.314,4.703,6.029,5.597c2.717,0.896,5.449,1.643,8.08,2.263
		c2.629,0.62,5.241,1.168,8.651,2.193c-2.472,0.438-4.462,0.947-6.471,1.254c-5.367,1.312-10.915,0.795-16.301-0.881
		c-2.269-0.85-4.505-1.927-5.077-4.583c-3.894,2.59-4.82-1.114-5.746-2.968c1.852-3.705,3.704-12.968,9.752-8.874
		c2.959-0.002,6.184-0.034,10.569,1.81c3.763,2.433,8.394,3.36,13.027,2.433c-4.865-3.474-10.248-6.947-14.535-11.025
		c-1.314-1.562-2.126-3.853-2.542-6.768c-0.395-2.592-1.162-4.985-2.236-7.183c-0.793-2.334,0.732-5.824,3.763-10.82
		c0.877-1.704,2.636-3.874,6.446-7.077c7.25-7.148,20.218-17.337,14.662-30.305c-1.852,3.705-1.852,8.337-4.631,12.042
		c9.261-13.895,2.778-31.495-9.264-40.758c11.116,2.779,17.599,13.896,18.525,24.084c0,12.968-6.483,25.01-16.161,33.327
		c-4.404,4.446-5.503,7.19-6.347,9.793c-0.844,2.603-1.621,5.139-2.187,7.567c1.759,3.885,3.768,6.292,6.053,7.786
		c7.065,3.59,14.938,4.053,23.275-1.968c-6.948,2.779-15.054,3.706-21.928,1.722c-2.231-0.876-4.324-2.076-5.84-4.987
		c-1.083-2.079-1.941-4.269-1.116-7.652c1.572-2.504,2.933-5.259,4.364-8.292c16.182-11.359,25.445-33.59,15.256-51.19
		c-5.557-7.411-19.454-15.747-24.084-6.484c-2.778,7.41,10.19,13.894,8.338,24.084c4.631-5.558-2.779-13.894,2.778-18.526
		c5.557-4.632,8.338,5.558,9.933,9.589C211.523,123.613,211.771,125.549,211.771,125.549z"/>
	<path opacity="0.2" fill="#FFFFFF" d="M211.251,121.491c-0.351-4.032-4.058-6.811-4.984-9.59c2.781,4.632,4.633,8.337,5.559,13.895
		c-2.778-4.632-4.633-15.747-9.264-12.042c-7.409,5.558,0,18.526-9.264,25.011c-0.926,0-3.705,0-3.705,0
		c10.19-9.263,5.559-21.305-0.926-29.641c-1.852-3.706,2.779-7.411,5.557-8.337c9.264-0.926,16.675,4.632,20.38,12.042
		c8.337,16.674,0.928,36.127-13.174,47.596c-3.407,3.479-4.462,5.735-5.58,7.879c-2.479,4.698-1.915,6.908-1.232,9.01
		c1.228,3.07,2.865,4.687,4.713,5.559c1.901,0.645,3.927,0.82,6.01,0.355c6.485,0,12.042-3.706,19.454-2.778
		c-6.02,6.947-14.126,8.336-21.535,6.168c-2.467-0.723-4.86-1.84-7.07-3.279c-0.79-1.871-1.578-3.765-2.388-5.652
		c-0.641-2.008-1.305-4.009,0.963-8.228c1.298-2.336,2.474-4.856,5.812-8.509c7.545-6.437,12.175-13.849,15.882-22.185
		c4.631-12.042,0-25.937-10.192-34.274c-3.705-2.779-10.188-5.557-14.821-0.925c7.411-2.779,13.894,0.925,18.527,6.484
		c3.705,5.558,3.705,12.042,3.705,18.526c0.926-0.927,0.926-2.779,1.855-3.706c2.776,15.747-8.34,29.642-20.459,39.285
		c-2.025,2.479-3.19,4.545-4.362,6.632c-1.172,2.087-2.346,4.195-3.375,6.385c1.314,2.14,2.442,4.416,3.384,6.809
		c0.94,2.395,1.693,4.908,2.257,7.523c1.427,1.404,3.012,2.642,4.507,3.866c2.994,2.449,5.54,4.996,6.003,8.238
		c0,2.778-4.631-0.927-7.739-1.251c-3.052-1.171-5.667-1.84-7.87-1.967c-2.077,0.047-4.112,0.071-5.082-0.339
		c-3.753,1.341-4.165,4.638-2.467,6.336c0.386-1.312,1.066-2.33,2.631-3.094c1.565-0.763,4.02-1.271,7.959-1.563
		c10.716,3.731,24.613,8.363,33.874-0.9c-7.411-5.558-17.29-5.352-25.745-8.3c-2.114-0.737-4.074-1.782-5.816-3.321
		c-0.447-2.652-1.13-5.221-2.033-7.668c-0.701-2.558-1.623-4.995,0.248-9.098c1.623-2.167,2.893-4.428,3.878-6.747
		c12.795-11.181,22.983-26.003,21.133-43.602c0,3.705-0.926,7.41,0.924,11.115c0.926-6.484-2.779-12.968-2.779-19.453
		c7.411,16.674-0.926,35.2-14.152,47.004c-3.747,3.531-4.96,5.792-6.392,7.952c-2.961,4.651-2.416,6.635-1.637,8.419
		c0.98,1.652,1.941,3.257,2.916,4.78c1.862,2.562,4.207,3.742,6.644,4.676c7.526,2.199,15.864,2.199,24.662,0.347
		c3.705-0.926,6.483,2.778,9.264,5.557c-4.633-1.851-10.19-6.483-14.821-3.705c-6.948,3.474-13.897,1.216-21.233,0.261
		c-2.435-0.342-4.911-0.537-7.337-0.531c2.194,1.846,4.729,2.738,7.395,3.209c8.034,1.346,17.239-1.085,24.88,1.693
		c1.852,0.926,3.707,2.779,3.707,4.632c-6.485,12.042-21.308,9.263-32.864,6.444c-3.854-0.956-6.521-0.699-8.84-0.291
		c-0.978,1.309-0.096,3.572,0.807,5.889c2.437,0.978,4.942,1.827,7.454,2.585c2.514,0.76,5.035,1.429,7.505,2.045
		c-3.241,1.853-6.252,2.317-9.297,2.121c-3.043-0.195-6.118-1.048-9.488-1.827c-1.595-2.147-4.373-2.147-6.226-4.925
		c-1.235-2.317-1.359-5.33,1.962-10.904c1.321-0.771,2.701-0.586,4.158-0.049c1.457,0.535,3.91,0.457,6.048,0.25
		c3.578,0.513,6.359,4.219,10.063,2.366c-1.852-2.779-3.938-5.094-6.057-7.399c-2.121-2.305-3.11-6.598-4.032-11.835
		c-0.479-2.197-1.127-4.241-1.88-6.159c1.139-1.989,2.285-3.943,3.358-5.916c1.076-1.973,2.082-3.963,4.582-6.617
		c10.513-9.315,22.555-20.431,19.779-36.179c-0.928-1.852-1.855-0.926-1.855,0.927c3.705-10.19-3.705-20.38-12.042-25.011
		c12.042,3.705,18.525,16.673,15.747,28.715c-2.779,10.19-7.409,20.379-15.836,27.064c-4.381,4.185-5.655,6.801-6.46,9.221
		c-0.807,2.418-1.534,4.788-2.04,7.074c1.843,3.938,3.719,6.961,5.924,8.63c6.834,4.053,13.78,4.979,19.337-3.82
		c-4.322,4.014-9.158,5.249-13.757,4.563c-2.299-0.344-4.53-1.185-6.583-2.547c-0.931-2.807-2.184-5.58-3.503-8.415
		c1.013-2.211,1.955-4.565,2.785-7.006c0.514-1.241,1.293-2.637,2.453-4.236c8.417-8.297,14.9-16.634,17.679-28.676
		c2.778-14.821-5.557-32.421-22.23-32.421c-1.855,0-3.707,0.926-4.633,2.779c-0.926,4.633,0.926,8.337,3.704,12.043
		c3.707,6.484,2.781,12.968,0,19.452c8.338-6.484,2.781-17.6,6.485-25.01c2.779-5.558,6.483,3.705,8.936,6.447
		C210.772,119.886,211.251,121.491,211.251,121.491z"/>
	<path opacity="0.2" fill="#FFFFFF" d="M210.25,118.015c-1.202-2.409-2.128-4.262-3.983-6.115
		c5.559,6.484,4.633,14.821,4.633,22.231c1.852-7.41,0.926-16.673-6.485-21.305c-0.926,0-2.778,0.926-3.705,1.852
		c-2.778,7.411,0,22.232-11.116,23.158c9.264-5.558,7.412-18.526,0.926-26.863c-3.705-4.632,0.926-9.264,5.559-10.19
		c6.483-0.926,12.042,3.705,15.747,8.337c13.895,17.599,3.707,39.831-11.355,52.709c-1.616,1.679-2.605,3.019-3.23,4.148
		c-1.059,2.217-2.273,4.368-3.606,6.422c0.844,2.306,1.745,4.584,2.715,6.856c1.661,2.295,3.777,3.225,6.027,3.833
		c6.902,1.293,15.006-0.327,22.417-2.643c-6.485,5.558-14.589,7.41-21.841,5.779c-2.416-0.544-4.741-1.476-6.874-2.785
		c-1.16-2.138-2.142-4.378-3.082-6.651c-0.288-1.275-0.236-2.77,0.204-4.619c1.406-2.017,2.706-4.264,3.833-6.66
		c11.088-10.074,21.276-22.116,21.276-37.864c0-12.041-9.261-25.937-23.156-25.937c17.599,2.779,23.156,25.011,14.821,38.905
		c2.779-1.852,0.926-6.484,3.705-8.336c4.631,12.042-8.338,21.305-15.684,29.185c-3.642,2.887-5.082,4.758-5.831,6.192
		c-2.751,4.703-5.194,8.54-4.301,10.778c1.188,2.108,2.128,4.412,2.764,6.93c0.683,3.164,1.754,5.564,3.4,7.031
		c5.349,3.684,11.778,6.116,18.724,7.505c-1.852,1.852-4.631,0.926-7.412,0.926c1.852,0.926,3.707,0.926,4.633,2.78
		c-4.633,1.852-9.264,0-13.911-1.314c-5.007-2.269-8.178-2.609-10.814-1.9c-3.082-1.311-5.192-1.105-7.061,2.071
		c-0.189,3.123,1.371,5.003,3.069,6.702c0.772-2.78,0.922-5.344,2.93-6.553c1.983,0.166,4.43,0.117,7.15-0.056
		c11.226,2.904,26.973,7.535,35.31-3.581c-8.644-3.706-18.937-3.294-27.779-6.378c-2.21-0.772-4.243-1.913-6.067-3.55
		c-0.571-2.614-1.345-5.094-2.318-7.431c-0.774-2.441-1.747-4.738-0.484-8.262c1.286-1.932,2.486-3.958,3.529-6.06
		c1.043-2.099,4.228-5.117,8.069-8.973c8.377-7.516,14.863-17.705,14.863-29.746c0,0.926,0,2.779,0,3.705
		c2.776-6.484,0-12.968-1.855-18.526c8.337,19.453-2.779,38.905-18.548,50.982c-1.104,2.617-2.409,5.122-3.836,7.458
		c-1.141,3.469-0.222,5.579,0.861,7.589c1.261,1.902,2.689,3.702,4.439,5.331c2.881,1.097,5.894,1.818,8.981,2.281
		c9.261,1.389,19.22,0.463,28.484,0.463c-12.351-0.772-24.704,4.889-35.981,0.9c-2.189-0.947-4.334-2.282-5.847-5.488
		c-0.068,3.626,1.069,5.513,2.807,6.557c1.738,1.041,3.821,1.737,5.674,2.661c9.264,2.779,23.158-2.779,25.01,4.633
		c2.781,13.894-23.158,10.189-34.557,6.418c-2.914,0.128-5.599,0.2-7.888,0.227c-0.007,1.829,0.208,3.925,0.098,6.04
		c2.979,2.135,6.452,3.062,9.926,3.756c3.475,0.695,6.949,1.158,10.19,2.085c-6.946,2.779-13.894,0.346-20.843-1.434
		c-2.11-0.753-3.036-2.472-3.772-4.021c-1.321-0.103-3.174-0.103-4.1-0.103c-0.926-2.162-0.426-5.194,2.954-10.386
		c1.462-2.574,3.239-2.235,5.096-0.474c2.159,0.622,4.696,0.415,8.144,1.348c4.186,1.174,7.891,3.028,12.522,3.954
		c0-0.926,0-1.853,0-2.779c1.852-2.779,5.559-1.852,8.338-1.852c-5.094,0.463-9.727-1.158-13.958-3.615
		c-2.117-1.229-4.093-2.726-5.896-4.424c-0.861-3.138-1.988-6.035-3.354-8.712c-1.129-2.776-2.5-5.331-0.582-9.467
		c0.854-1.782,1.899-3.64,2.926-5.554c1.031-1.914,3.022-4.185,6.904-7.449c7.475-8.022,17.667-17.284,15.812-29.327
		c-1.852,6.484-6.483,11.116-9.264,16.674c9.264-11.116,12.042-27.79,1.852-39.832c-3.705-3.706-10.188-6.484-15.747-4.631
		c12.042-7.41,23.158,6.484,25.937,15.747c5.559,18.526-7.409,34.273-20.151,45.307c-0.889,1.844-1.805,3.667-2.64,5.479
		c-2.009,3.955-1.457,5.999-0.844,8.004c0.772,1.892,1.6,3.747,2.566,5.509c1.922,1.216,4.009,2.09,6.188,2.63
		c6.546,1.618,13.958,0.229,20.44-3.94c-1.852-0.926-3.707-1.852-5.559-0.926c-5.248,4.014-10.396,4.836-15.024,3.618
		c-2.313-0.61-4.436-1.927-6.151-4.505c-0.484-2.785-1.328-5.573-2.372-8.38c1.025-2.083,2.082-4.108,3.075-6.119
		c0.996-2.011,3.737-4.831,7.072-8.393c9.694-8.642,16.177-21.61,14.325-34.578c-0.926-9.264-6.483-16.674-14.821-20.38
		c-4.631-1.852-12.042-3.704-12.968,0.927c-0.926,11.115,9.264,21.305,3.704,32.421c7.412-5.558,3.707-15.748,4.633-24.084
		c0-1.852,1.852-3.706,3.705-3.706c2.778,0.927,4.631,3.706,5.837,6.644C209.642,116.747,210.25,118.015,210.25,118.015z"/>
	<path opacity="0.2" fill="#FFFFFF" d="M209.317,115.881c0.657,0.651,1.583,2.504,1.583,4.356c-1.852-3.705-3.707-9.263-8.337-9.263
		c-0.926,0-2.779,1.852-2.779,3.705c0,7.411,0.926,20.38-8.337,23.158c5.559-9.263,3.707-18.526-2.779-27.789
		c-0.926-1.854-0.926-5.559,0.926-7.412c7.412-5.557,16.673,0,21.306,4.632c16.673,20.379,1.852,44.463-14.107,58.943
		c-0.982,2.453-2.025,4.883-3.029,7.273c0.856,2.336,1.733,4.63,2.545,6.943c1.831,1.694,3.835,2.901,6.048,3.451
		c4.427,1.097,9.47,0.275,15.027-3.431c1.852-0.928,4.633,0,6.485,0.926c-6.948,6.947-15.284,8.105-22.555,5.431
		c-2.353-1.106-4.589-2.638-6.228-5.803c-1.373-2.223-2.353-4.754-3.16-7.445c1.618-2.248,3.12-4.817,4.418-7.577
		c0.791-1.417,2.105-3.113,4.935-5.721c13.326-11.305,20.738-27.979,14.255-44.652c-3.707-8.338-13.897-18.526-24.087-12.042
		c4.633-2.779,9.264-1.853,12.968,0.925c11.118,9.264,11.118,24.085,5.559,36.126c1.852-3.704,1.852-8.336,4.631-12.041
		c3.705,12.968-6.483,23.157-15.118,31.928c-2.381,2.067-4.107,3.802-5.702,5.474c-0.667,1.314-1.352,2.632-1.988,3.945
		c-1.272,2.629-2.351,5.246-2.711,7.81c0.943,2.237,1.731,4.615,2.161,7.22c1.272,5.093,3.747,7.473,6.258,9.82
		c2.509,2.349,5.056,4.665,7.835,6.98c-3.704,2.779-7.409-0.926-11.111-0.994c-3.585-1.138-6.16-0.697-8.709-0.428
		c-5.19-2.283-6.116,2.348-8.894,6.98c0.926,1.853,3.705,5.558,7.374,6.884c1.89,0.526,2.816,0.526,4.668,0.526
		c-2.778-1.852-5.337-4.163-5.643-9.189c2.339-1.64,4.995-2.412,7.863-2.755c10.749,3.607,26.496,9.165,35.759-1.951
		c-3.705,0.926-4.631-2.778-3.705-5.558c-8.646,0.617-18.113-0.411-26.252-4.219c-2.035-0.953-3.824-2.389-4.871-5.416
		c-0.325-1.99-0.856-3.831-1.562-5.559c-0.274-1.968-0.72-3.823-0.016-6.336c0.765-1.796,1.513-3.607,2.247-5.427
		c0.734-1.822,1.806-3.757,5.29-6.623c7.563-6.25,14.049-13.661,17.756-22.924c-0.928,1.852-1.855,3.706-2.781,6.484
		c4.631-7.41,6.483-17.6,3.707-25.937c4.631,17.6-5.559,34.273-19.414,44.404c-1.254,2.293-2.351,4.429-3.431,6.503
		c-2.332,4.239-1.511,6.288-0.648,8.348c1.048,1.94,2.135,3.888,3.352,5.793c2.54,1.182,5.164,2.109,7.867,2.804
		c8.104,2.084,16.904,2.084,26.166,0.695c0.926,0,5.559,1.852,5.559,5.558c-3.707-13.896-23.158-0.927-34.274-3.706
		c-2.315-0.926-4.399-2.315-6.483-3.704c-2.781-2.78-1.855-7.41-4.633-8.337c-1.852-0.927,2.778,1.851,0,2.779
		c-0.926,0-1.852-1.852-1.852-3.706c1.852,4.632,2.779,11.116,7.823,13.69c1.955,0.772,3.988,1.363,6.071,1.827
		c6.254,1.389,12.971,1.621,19.454,2.084c2.779,0,6.485,0.926,5.557,3.706c-4.631,12.042-22.232,10.189-32.265,5.98
		c-3.803-1.058-6.394-0.913-8.569-0.641c-2.346,0.732-1.93,3.151-1.775,5.777c0,0.926,2.779,0.926,3.656,2.212
		c2.133,0.695,4.308,1.299,6.49,1.845c2.18,0.547,4.366,1.036,6.527,1.499c-4.631,4.632-10.19,0-15.08,0.499
		c-2.973-0.892-5.456-1.595-5.966-3.267c-1.743-2.009-3.436-4.128-4.308-6.768c1.626-3.022,3.099-6.036,4.75-6.716
		c2.07,0.047,4.201,1.348,7.54,1.043c5.653-0.538,10.286,6.872,16.769,2.241c-1.852,0.926-2.778-1.852-4.631-1.852
		c2.779,0.926,4.631,1.852,7.412,0c-4.633-0.926-8.569-3.011-12.119-5.532c-1.775-1.261-3.333-2.836-4.32-5.383
		c-0.503-2.967-1.359-5.672-2.509-8.139c-0.894-2.586-2.046-4.954,1.242-9.815c0.952-1.582,1.922-3.199,3.001-4.921
		c9.147-10.674,23.968-20.864,21.189-36.611c-1.852,4.631-4.631,10.189-6.483,14.821c3.704-5.558,4.631-12.968,5.557-19.453
		c0-11.116-10.19-25.01-22.232-21.305c7.411-3.706,15.747,0,20.38,6.484c4.633,6.484,7.409,12.968,6.483,20.378
		c-1.85,12.042-8.335,23.157-17.445,30.507c-3.213,3.485-4.572,5.842-6.198,7.925c-2.741,4.505-2.107,6.437-1.469,8.356
		c0.819,1.793,1.642,3.572,2.505,5.308c2.074,1.36,4.315,2.431,6.63,3.158c6.946,2.177,14.587,1.251,20.609-4.307
		c-6.483,2.779-13.663,4.168-19.996,2.961c-2.109-0.402-4.128-1.092-5.994-2.118c-1.073-2.301-2.145-4.58-3.237-6.835
		c-0.351-1.281-0.086-2.999,1.022-5.45c1.148-2.107,2.21-4.325,3.473-6.758c17.323-12.369,27.511-38.305,12.69-55.905
		c-4.633-4.632-12.042-9.264-19.454-5.558c-1.852,0.926-2.779,3.706-2.779,5.558c3.705,7.41,10.19,15.748,7.411,25.011
		c4.631-7.41,1.852-17.6,5.774-24.573C206.726,111.694,209.317,115.881,209.317,115.881z"/>
	<path opacity="0.2" fill="#FFFFFF" d="M208.576,114.582c-1.382-3.607-6.013-5.46-6.939-2.681
		c-4.631,8.337,1.852,24.084-11.116,25.937c9.264-9.263-0.926-21.305,0-31.495c0.926-6.484,12.042-6.484,17.601-1.853
		c20.38,17.601,7.411,45.39-9.039,58.838c-1.104,1.602-1.848,3.025-2.346,4.32c-2.4,5.762-1.656,8.618-1.298,11.302
		c1.637,2.66,3.866,3.556,6.256,4.125c7.353,1.079,16.154-0.774,24.026-1.7c-6.946,3.243-15.052,5.095-22.23,4.072
		c-2.39-0.342-4.68-1.002-6.789-2.037c-1.543-2.361-2.795-4.959-3.828-7.735c0.842-2.601,1.829-5.359,2.804-8.208
		c0.613-1.449,1.38-2.987,3.578-5.175c15.349-11.486,26.465-36.496,11.645-54.096c-4.633-5.558-11.116-7.41-17.601-6.484
		c16.675,0.926,25.011,20.38,18.527,35.2c1.852-2.78,1.852-5.558,1.852-8.337c6.483,12.968-7.411,25.009-15.595,33.172
		c-3.305,2.709-4.523,4.451-5.363,5.875c-2.729,4.716-4.64,8.32-3.84,10.594c1.078,2.142,1.859,4.533,2.273,7.216
		c0.69,3.547,2.044,5.695,3.705,7.277c5.33,4.123,11.408,6.729,16.967,10.897c-7.411,2.778-13.894-2.78-21.612-3.758
		c-2.905,0.082-5.639,0.207-7.063,0.057c-2.488-2.297-4.432,0.758-6.623,3.522c-0.823,2.954,1.95,5.737,4.64,5.89
		c0.351,3.236,2.615,4.69,5.173,5.51c2.559,0.821,5.106,1.284,7.884,0.821c-2.315-0.927-4.631-1.968-6.92-3.125
		c-2.07-1.375-3.291-3.757-3.688-7.329c1.726-1.788,3.716-2.721,5.845-3.219c2.301-0.304,5.669,1.097,9.526,2.589
		c8.207,2.747,20.249,5.526,26.734-2.811c1.852-2.779,2.781-7.41-0.926-7.41c-9.261,0.617-18.527,0.412-26.64-2.775
		c-2.03-0.796-3.885-1.97-5.199-4.303c-0.377-2.399-1.41-4.604-2.666-6.662c-1.055-2.159-2.332-4.17-0.119-7.938
		c1.013-1.99,2.065-4.005,3.096-6.052c10.223-10.25,22.267-21.366,25.043-37.112c-1.85,12.042-8.335,24.083-18.443,31.634
		c-3.447,3.389-4.549,5.674-5.683,7.973c-1.134,2.299-2.299,4.612-3.389,7c0.95,1.883,1.964,3.723,3.171,5.469
		c1.207,1.747,2.603,3.4,4.308,4.909c2.797,0.961,5.756,1.527,8.805,1.836c9.147,0.926,19.105-0.463,27.906-0.463
		c-11.116,0.617-23.878,3.706-34.995,1.029c-2.779-0.669-5.293-2.044-7.042-5.518c-1.214-1.924-2.051-4.044-2.933-6.145
		c-0.442-1.051,0.033-2.648,1.162-4.71c1.13-2.062,2.785-4.57,4.359-7.233c-2.788,4.502-5.842,8.508-6.186,10.767
		c0.166,1.983,0.458,3.854,0.905,5.622c0.891,3.538,1.981,6.909,4.624,9.481c2.126,1.185,4.441,2.033,6.874,2.612
		c7.295,1.737,15.63,1.042,23.041-0.347c1.852,0,3.707,0.926,3.707,2.779c-4.633,13.895-23.161,12.041-32.948,7.836
		c-3.669-1.141-6.125-1.133-8.195-1.09c-2.764,0.699-3.386,2.517-3.216,4.924c0.501,2.718,2.367,3.828,4.493,4.598
		c4.252,1.537,8.677,2.567,13.001,3.184c-2.779,1.852-5.557,1.852-8.359,1.334c-2.799-0.518-5.62-1.553-8.485-1.77
		c-2.61-1.417-7.241-4.196-9.093-6.975c1.092-2.579,3.375-6.219,5.262-9.951c2.11,0.13,4.685,1.975,8.279,1.911
		c5.912,0.63,16.1,6.188,14.248,0.63c-0.926-3.241-3.936-5.558-7.46-7.912c-1.764-1.178-3.494-2.64-4.539-5.474
		c-0.316-2.71-1.017-5.148-2.028-7.355c-0.781-2.319-1.838-4.423,1.08-8.811c0.919-1.643,1.958-3.456,2.912-5.363
		c10.035-9.548,23.006-20.664,21.151-35.484c-0.926,1.852-0.926,4.632-2.779,6.484c3.707-9.264,3.707-20.379-2.778-28.716
		c-4.633-3.706-11.116-9.262-15.749-3.706c-2.778,3.706,0.926,6.485,2.781,9.264c-2.781-2.778-8.338-8.336-4.633-10.189
		c14.821-8.338,27.789,11.115,26.863,25.011c-0.926,12.968-7.409,25.937-18.385,33.534c-1.558,1.511-2.668,2.712-3.424,3.654
		c-3.62,6.399-2.996,9.097-2.025,11.595c1.202,2.326,2.418,4.675,3.69,7.029c2.105,1.202,4.376,2.118,6.696,2.686
		c6.965,1.711,14.374,0.321,19.007-5.7c-8.335-1.854-12.968,5.558-21.306,4.632c-2.084-0.232-3.929-1.002-5.55-2.259
		c-0.311-2.865-1.212-5.666-2.474-8.418c-0.398-1.565-0.423-3.465,1.2-6.816c1.01-2.573,2.437-5.282,6.948-9.637
		c8.214-7.144,13.773-17.332,15.623-28.448c0.926-12.968-6.483-25.01-18.525-28.716c-3.705-0.926-8.337,0-9.264,2.779
		c-4.631,11.117,11.116,20.38,2.778,31.496c12.042-5.558,0.926-20.378,8.012-28.281
		C205.966,110.938,208.576,114.582,208.576,114.582z"/>
	<path opacity="0.2" fill="#FFFFFF" d="M208.333,114.286c1.642,2.246,1.642,4.099,1.642,5.951c0.926-5.558-3.707-9.263-8.337-10.189
		c-1.852,0-2.779,2.778-2.779,4.631c1.852,8.337,1.852,20.38-7.411,22.232c7.411-11.116-3.705-24.084,0.926-33.347
		c4.633-7.41,19.454,1.852,23.161,11.115c7.409,17.6-1.855,36.126-15.391,47.26c-1.908,2.033-2.722,3.543-3.251,4.915
		c-0.828,2.695-1.663,5.364-2.39,7.979c1.373,2.942,2.624,5.767,3.389,8.576c2.187,1.317,4.673,1.902,7.451,1.67
		c7.412,0,12.042-8.337,19.454-2.779c-6.946,4.632-14.821,5.326-21.914,3.093c-2.362-0.745-4.64-1.814-6.768-3.171
		c-0.931-1.685-1.836-3.681-2.767-5.816c-0.283-1.207-0.194-2.695,0.344-4.632c1.324-2.105,2.584-4.502,3.684-7.07
		c10.749-9.266,20.01-22.234,20.936-37.056c0-12.041-8.335-25.937-22.23-25.011c14.821,5.558,23.156,24.084,17.599,38.906
		c-3.705,9.263-11.116,15.747-18.368,22.187c-1.576,1.575-2.654,2.889-3.216,3.989c-1.123,2.2-2.514,4.323-4.184,6.347
		c-1.7,2.933-1.305,4.84-0.276,6.489c2.056,3.294,3.803,6.847,5.187,10.786c1.894,1.061,3.819,2.048,5.763,2.981
		c5.831,2.801,11.851,5.116,17.875,7.432c-6.485,4.632-13.897,1.853-20.555,0.236c-4.425-1.624-7.337-1.704-9.53-1.884
		c-6.043-3.909-7.896,0.721-10.52,6.194c1.226,1.941,2.69,3.717,4.563,5.238c0.559,1.298,2.336,2.099,5.19,2.892
		c3.987,1.22,6.766,1.22,10.473,1.22c-2.315-0.927-4.691-1.853-7.061-2.846c-2.187-1.178-4.369-2.422-4.9-5.633
		c-0.014-2.601,2.245-3.677,4.628-4.548c2.149,0.319,4.741,0.635,8.689,2.059c8.831,2.63,31.065,1.704,26.432-5.706
		c-3.707-6.175-14-5.764-23.5-7.81c-2.374-0.512-4.635-1.292-6.661-2.521c-0.566-2.049-1.279-3.99-2.119-5.851
		c-0.837-1.863-1.803-3.644-2.872-5.371c0.451-2.023,1.195-3.944,2.072-5.835c0.875-1.89,1.883-3.748,2.865-5.642
		c7.982-5.875,14.467-14.211,20.024-22.548c-3.705,7.41-10.19,12.042-14.821,18.526c11.116-9.264,20.377-22.232,19.451-37.053
		c0.926,15.747-8.335,28.715-19.681,38.055c-1.286,1.492-2.238,2.816-2.86,3.982c-1.069,2.298-2.224,4.571-3.377,6.828
		c-0.269,1.813-0.04,3.178,0.262,4.47c1.354,4.239,2.991,6.995,5.075,8.405c10.985,5.522,23.979,0.633,36.33,2.176
		c-9.264-0.926-16.675,0.926-25.936,0.926c-2.549,0-5.038-0.404-7.412-1.158c-2.299-0.942-4.479-2.233-6.078-4.888
		c-0.795-1.731-1.567-3.434-2.332-5.117c-0.383-1.93-0.762-3.841,0.234-6.662c1.35-2.028,2.535-4.128,3.555-6.282
		c12.033-11.093,22.22-24.061,22.22-40.735c0,11.116-4.631,23.158-13.895,30.569c1.852-1.853,3.707-3.706,5.559-5.558
		c-3.707,3.705-7.411,6.484-10.55,10.95c-2.407,2.084-4.1,3.753-5.648,5.349c-2.476,3.922-5.12,7.739-5.138,12.443
		c0.912,1.749,1.815,3.506,2.708,5.242c0.893,1.737,1.773,3.454,2.64,5.127c2.505,1.235,5.103,2.264,7.767,3.153
		c7.989,2.663,16.556,4.053,24.893,5.905c-5.557,13.894-25.937,7.41-35.869,4.905c-2.804,0.226-5.346,0.442-7.477,0.586
		c0.454,3.534,0.865,6.829,3.08,8.056c2.46,0.985,5.066,1.737,7.844,2.2c-1.852,2.779-4.862,2.779-7.98,1.862
		c-3.118-0.918-5.215-3.754-5.482-6.467c-2.079-1.547-3.908-3.397-3.44-6.827c1.483-2.124,2.94-3.345,4.514-3.092
		c1.63,0.634,4.266,0.814,7.288,0.374c6.955,0.255,13.438,6.739,20.85,2.107c-3.707-2.315-7.875-4.168-11.783-6.349
		c-1.955-1.091-3.808-2.321-5.431-3.874c-0.372-2.774-1.045-5.419-1.981-7.916c-0.938-2.497-2.14-4.842-3.576-7.02
		c1.059-2.048,2.61-4.451,4.175-7.021c0.783-1.285,1.712-2.657,2.921-4.185c10.115-9.951,24.009-21.067,20.305-36.814
		c-3.705,2.779-0.926,7.41-2.779,10.189c3.707-10.189,0-21.305-3.704-30.569c19.451,16.674,5.557,43.537-10.503,56.179
		c-0.762,2.018-1.565,3.901-2.311,5.543c-1.553,4.383-0.617,6.989,0.402,9.616c1.901,3.081,4.266,4.619,6.719,5.827
		c7.545,2.962,15.88,2.962,24.218-2.133c-2.778-1.852-5.557-3.706-8.337-2.778c-5.248,3.706-10.496,4.631-15.267,3.637
		c-2.383-0.498-4.591-1.653-6.612-3.315c-0.524-2.833-1.424-5.684-2.521-8.568c1.289-2.176,2.465-4.403,3.487-6.664
		c11.652-11.953,25.546-27.7,19.987-46.226c-2.779-9.262-10.19-19.452-21.304-18.526c-2.781,0.926-6.485,2.779-5.559,5.558
		c0.926,10.19,10.19,21.305,1.852,31.495c11.116-6.484,6.485-19.453,8.838-29.984C205.746,110.83,208.333,114.286,208.333,114.286z"
		/>
</g>
</svg>
